fontCallback.success({"glyphs":{"S":{"x_min":117,"x_max":850,"ha":952,"o":"m 129 48 l 129 279 l 208 279 q 271 108 208 163 q 465 53 335 53 q 650 100 586 53 q 714 240 714 148 q 675 352 714 313 q 514 429 637 392 l 380 469 q 176 579 235 513 q 117 759 117 645 q 208 959 117 888 q 465 1031 300 1031 q 620 1015 535 1031 q 799 970 704 1000 l 799 756 l 722 756 q 650 910 710 862 q 467 958 590 958 q 304 914 360 958 q 249 787 249 870 q 291 673 249 715 q 469 591 333 632 l 594 554 q 791 448 732 513 q 850 276 850 384 q 755 54 850 129 q 474 -20 661 -20 q 305 -2 391 -20 q 129 48 218 14 "},"â±«":{"x_min":62,"x_max":910,"ha":964,"o":"m 62 0 l 62 48 l 693 930 l 169 930 l 169 778 l 86 778 l 86 1013 l 885 1013 l 885 964 l 255 83 l 910 83 l 910 -217 l 839 -217 q 826 -107 839 -215 q 746 0 814 0 l 62 0 "},"Â¦":{"x_min":179,"x_max":289,"ha":468,"o":"m 289 277 l 289 -237 l 179 -237 l 179 277 l 289 277 m 289 972 l 289 458 l 179 458 l 179 972 l 289 972 "},"/":{"x_min":0,"x_max":467.9375,"ha":468,"o":"m 359 1013 l 467 1013 l 108 -129 l 0 -129 l 359 1013 "},"y":{"x_min":-4,"x_max":781,"ha":785,"o":"m 300 -132 l 347 -12 l 78 648 l -4 648 l -4 721 l 328 721 l 328 648 l 212 648 l 415 152 l 618 648 l 510 648 l 510 721 l 781 721 l 781 648 l 700 648 l 369 -162 q 294 -277 336 -246 q 178 -309 253 -309 q 112 -303 146 -309 q 45 -287 78 -298 l 45 -150 l 108 -150 q 132 -216 112 -196 q 192 -236 151 -236 q 252 -215 229 -236 q 300 -132 275 -194 "},"â±¨":{"x_min":50.640625,"x_max":857,"ha":896,"o":"m 58 0 l 58 72 l 170 72 l 170 984 l 50 984 l 50 1056 l 295 1056 l 295 593 q 384 703 329 666 q 513 741 440 741 q 688 672 632 741 q 745 458 745 604 l 745 72 l 857 72 l 857 -192 l 785 -192 l 775 -96 q 696 0 764 0 l 512 0 l 512 72 l 620 72 l 620 419 q 587 600 620 551 q 472 649 555 649 q 340 585 385 649 q 295 401 295 522 l 295 72 l 404 72 l 404 0 l 58 0 "},"Ã�":{"x_min":-8,"x_max":1017,"ha":1004,"o":"m 278 367 l 650 367 l 464 848 l 278 367 m -8 0 l -8 72 l 80 72 l 441 1013 l 556 1013 l 917 72 l 1017 72 l 1017 0 l 649 0 l 649 72 l 761 72 l 676 294 l 250 294 l 165 72 l 277 72 l 277 0 l -8 0 m 544 1288 l 678 1288 l 500 1109 l 420 1109 l 544 1288 "},"g":{"x_min":69,"x_max":848,"ha":889,"o":"m 729 648 l 729 15 q 643 -224 729 -139 q 400 -309 558 -309 q 263 -296 328 -309 q 139 -257 198 -283 l 139 -106 l 203 -106 q 261 -209 216 -176 q 391 -241 307 -241 q 553 -179 501 -241 q 604 15 604 -117 l 604 112 q 510 12 567 44 q 370 -20 454 -20 q 153 85 237 -20 q 69 360 69 191 q 153 635 69 530 q 370 741 237 741 q 510 708 454 741 q 604 607 567 676 l 604 721 l 848 721 l 848 648 l 729 648 m 604 396 q 554 594 604 525 q 409 663 504 663 q 264 586 313 663 q 214 360 214 510 q 264 134 214 211 q 409 58 313 58 q 554 126 504 58 q 604 324 604 194 l 604 396 "},"Â²":{"x_min":60.921875,"x_max":469,"ha":556,"o":"m 115 879 l 67 879 l 67 986 q 160 1019 112 1008 q 254 1031 207 1031 q 406 986 348 1031 q 464 870 464 941 q 332 670 464 788 l 319 658 l 158 513 l 419 513 l 419 586 l 469 586 l 469 453 l 60 453 l 60 504 l 254 676 q 337 769 312 728 q 363 856 363 811 q 330 947 363 913 q 240 981 297 981 q 155 955 187 981 q 115 879 123 929 "},"Ã«":{"x_min":69,"x_max":750,"ha":821,"o":"m 750 347 l 214 347 l 214 341 q 269 121 214 195 q 431 47 324 47 q 566 90 514 47 q 640 218 619 133 l 739 218 q 629 39 710 99 q 418 -20 549 -20 q 164 84 260 -20 q 69 360 69 188 q 163 636 69 531 q 411 741 257 741 q 662 640 574 741 q 750 347 750 539 m 603 419 q 553 609 603 545 q 411 673 504 673 q 275 609 325 673 q 214 419 225 544 l 603 419 m 278 1064 q 334 1040 311 1064 q 358 984 358 1017 q 335 927 358 949 q 278 905 313 905 q 222 927 244 905 q 200 984 200 949 q 223 1040 200 1017 q 278 1064 246 1064 m 543 1064 q 598 1040 575 1064 q 622 984 622 1017 q 599 927 622 949 q 543 905 577 905 q 486 927 508 905 q 464 984 464 949 q 487 1040 464 1017 q 543 1064 510 1064 "},"ÃŽ":{"x_min":59.359375,"x_max":491.671875,"ha":549,"o":"m 344 72 l 472 72 l 472 0 l 77 0 l 77 72 l 206 72 l 206 940 l 77 940 l 77 1013 l 472 1013 l 472 940 l 344 940 l 344 72 m 216 1288 l 335 1288 l 491 1109 l 413 1109 l 276 1218 l 138 1109 l 59 1109 l 216 1288 "},"e":{"x_min":69,"x_max":750,"ha":821,"o":"m 750 347 l 214 347 l 214 341 q 269 121 214 195 q 431 47 324 47 q 566 90 513 47 q 639 218 618 133 l 739 218 q 629 39 710 99 q 418 -20 549 -20 q 164 84 260 -20 q 69 360 69 188 q 163 636 69 531 q 411 741 257 741 q 662 640 574 741 q 750 347 750 539 m 603 419 q 553 609 603 545 q 411 673 504 673 q 275 609 325 673 q 214 419 225 544 l 603 419 "},"Ãƒ":{"x_min":-8,"x_max":1017,"ha":1004,"o":"m 278 367 l 650 367 l 464 848 l 278 367 m -8 0 l -8 72 l 80 72 l 441 1013 l 555 1013 l 917 72 l 1017 72 l 1017 0 l 649 0 l 649 72 l 760 72 l 675 294 l 250 294 l 165 72 l 277 72 l 277 0 l -8 0 m 492 1163 l 460 1182 q 432 1196 446 1191 q 407 1201 418 1201 q 362 1181 380 1201 q 342 1131 345 1162 l 278 1131 q 312 1239 278 1199 q 405 1280 347 1280 q 451 1273 430 1280 q 509 1246 472 1267 l 543 1228 q 573 1214 558 1219 q 599 1210 588 1210 q 643 1228 627 1210 q 659 1280 659 1247 l 724 1280 q 689 1169 724 1208 q 590 1131 654 1131 q 496 1161 544 1131 l 492 1163 "},"J":{"x_min":-117,"x_max":493,"ha":557,"o":"m -117 -242 l -117 -83 l -39 -83 q -9 -183 -39 -150 q 80 -216 20 -216 q 193 -165 161 -216 q 226 33 226 -114 l 226 940 l 69 940 l 69 1013 l 493 1013 l 493 940 l 364 940 l 364 28 q 296 -214 364 -139 q 80 -289 229 -289 q -17 -277 32 -289 q -117 -242 -67 -265 "},"Â»":{"x_min":131,"x_max":743,"ha":849,"o":"m 425 718 l 743 434 l 743 379 l 425 95 l 425 173 l 626 407 l 425 640 l 425 718 m 131 718 l 449 434 l 449 379 l 131 95 l 131 173 l 331 407 l 131 640 l 131 718 "},"Â©":{"x_min":192,"x_max":1197,"ha":1389,"o":"m 933 389 q 854 251 915 299 q 696 204 792 204 q 493 285 569 204 q 418 502 418 366 q 494 720 418 638 q 696 803 570 803 q 803 790 750 803 q 914 751 855 777 l 914 607 l 857 607 q 807 715 846 680 q 697 750 768 750 q 576 687 617 750 q 535 502 535 625 q 575 318 535 379 q 696 257 616 257 q 800 289 762 257 q 853 389 838 321 l 933 389 m 694 1008 q 886 970 797 1008 q 1049 859 975 933 q 1160 696 1123 785 q 1197 502 1197 607 q 1160 311 1197 399 q 1049 148 1123 222 q 886 37 975 74 q 694 0 797 0 q 502 37 591 0 q 339 148 413 74 q 228 311 265 222 q 192 502 192 399 q 228 696 192 607 q 339 859 265 785 q 502 970 413 933 q 694 1008 591 1008 m 694 938 q 528 906 605 938 q 388 810 452 874 q 293 669 325 747 q 261 502 261 591 q 293 337 261 414 q 388 197 325 261 q 528 101 452 133 q 694 69 605 69 q 861 101 784 69 q 1001 197 938 133 q 1096 337 1064 260 q 1128 502 1128 413 q 1096 670 1128 593 q 1001 810 1064 747 q 861 906 938 874 q 694 938 784 938 "},"Ã²":{"x_min":69,"x_max":766,"ha":836,"o":"m 417 47 q 569 126 517 47 q 620 360 620 206 q 569 594 620 515 q 417 673 517 673 q 265 594 317 673 q 214 360 214 515 q 266 126 214 206 q 417 47 317 47 m 417 -20 q 164 84 260 -20 q 69 360 69 188 q 164 637 69 533 q 417 741 259 741 q 670 637 575 741 q 766 360 766 533 q 670 84 766 188 q 417 -20 575 -20 m 319 1109 l 495 855 l 416 855 l 185 1109 l 319 1109 "},"^":{"x_min":147.15625,"x_max":1016.578125,"ha":1164,"o":"m 648 1013 l 1016 635 l 912 635 l 581 893 l 251 635 l 147 635 l 515 1013 l 648 1013 "},"Â«":{"x_min":107,"x_max":719,"ha":849,"o":"m 719 718 l 719 640 l 517 407 l 719 173 l 719 95 l 401 379 l 401 434 l 719 718 m 425 718 l 425 640 l 223 407 l 425 173 l 425 95 l 107 379 l 107 434 l 425 718 "},"D":{"x_min":77,"x_max":1034,"ha":1114,"o":"m 344 72 l 470 72 q 772 184 667 72 q 878 507 878 297 q 772 828 878 717 q 470 940 667 940 l 344 940 l 344 72 m 77 0 l 77 72 l 206 72 l 206 940 l 77 940 l 77 1013 l 479 1013 q 887 879 741 1013 q 1034 507 1034 745 q 887 134 1034 268 q 479 0 741 0 l 77 0 "},"Ã¿":{"x_min":-4,"x_max":781,"ha":785,"o":"m 299 -132 l 346 -12 l 78 648 l -4 648 l -4 721 l 328 721 l 328 648 l 212 648 l 414 152 l 617 648 l 510 648 l 510 721 l 781 721 l 781 648 l 699 648 l 369 -162 q 294 -277 335 -246 q 177 -309 252 -309 q 112 -303 145 -309 q 45 -287 78 -298 l 45 -150 l 108 -150 q 131 -216 112 -196 q 191 -236 151 -236 q 251 -215 228 -236 q 299 -132 274 -194 m 260 1065 q 316 1041 293 1065 q 340 985 340 1018 q 317 928 340 950 q 260 906 295 906 q 204 928 226 906 q 182 985 182 950 q 205 1041 182 1018 q 260 1065 228 1065 m 525 1065 q 580 1041 557 1065 q 604 985 604 1018 q 581 928 604 950 q 525 906 559 906 q 468 928 490 906 q 446 985 446 950 q 469 1041 446 1018 q 525 1065 492 1065 "},"Ã­":{"x_min":50,"x_max":451.328125,"ha":444,"o":"m 294 72 l 412 72 l 412 0 l 50 0 l 50 72 l 169 72 l 169 649 l 50 649 l 50 722 l 294 722 l 294 72 m 316 1111 l 451 1111 l 220 856 l 141 856 l 316 1111 "},"w":{"x_min":22,"x_max":1170,"ha":1188,"o":"m 666 722 l 850 158 l 1013 649 l 909 649 l 909 722 l 1170 722 l 1170 649 l 1090 649 l 875 0 l 771 0 l 594 539 l 415 0 l 316 0 l 102 649 l 22 649 l 22 722 l 348 722 l 348 649 l 231 649 l 392 158 l 578 722 l 666 722 "},"$":{"x_min":118,"x_max":768,"ha":883,"o":"m 468 46 q 584 90 544 53 q 625 192 625 127 q 585 291 625 250 q 468 352 545 331 l 468 46 m 400 803 q 291 767 330 803 q 253 671 253 731 q 288 580 253 616 q 400 521 324 543 l 400 803 m 119 49 l 119 236 l 194 236 q 245 95 194 143 q 400 47 297 47 l 400 375 q 181 475 244 418 q 118 627 118 533 q 192 803 118 737 q 400 870 267 870 l 400 1056 l 468 1056 l 468 871 q 599 853 536 871 q 723 807 663 836 l 723 630 l 649 630 q 594 755 641 708 q 468 802 547 802 l 468 498 q 701 393 634 453 q 768 235 768 334 q 689 52 768 121 q 468 -16 610 -16 l 468 -204 l 400 -204 l 400 -20 q 265 -2 334 -20 q 119 49 195 14 "},"\\":{"x_min":0,"x_max":467.9375,"ha":468,"o":"m 108 1013 l 467 -129 l 359 -129 l 0 1013 l 108 1013 "},"ÃŒ":{"x_min":77,"x_max":472,"ha":549,"o":"m 344 72 l 472 72 l 472 0 l 77 0 l 77 72 l 206 72 l 206 940 l 77 940 l 77 1013 l 472 1013 l 472 940 l 344 940 l 344 72 m 228 1288 l 352 1109 l 273 1109 l 95 1288 l 228 1288 "},"Âµ":{"x_min":40,"x_max":853,"ha":903,"o":"m 501 722 l 735 722 l 735 71 l 853 71 l 853 0 l 610 0 l 610 127 q 524 17 574 55 q 413 -20 474 -20 q 343 -7 375 -20 q 285 29 311 4 l 285 -216 l 403 -216 l 403 -289 l 40 -289 l 40 -216 l 160 -216 l 160 649 l 47 649 l 47 722 l 285 722 l 285 301 q 317 120 285 169 q 432 72 350 72 q 564 135 519 72 q 610 321 610 199 l 610 649 l 501 649 l 501 722 "},"Ã‡":{"x_min":78,"x_max":978.984375,"ha":1062,"o":"m 978 268 q 828 53 934 126 q 562 -20 723 -20 q 378 13 463 -20 q 227 113 293 47 q 114 286 151 189 q 78 505 78 383 q 214 887 78 742 q 573 1032 350 1032 q 749 1010 656 1032 q 951 944 843 988 l 951 711 l 874 711 q 773 898 849 838 q 561 959 698 959 q 316 843 399 959 q 233 505 233 728 q 316 167 233 283 q 561 52 399 52 q 748 106 675 52 q 854 268 821 160 l 978 268 m 617 0 q 681 -81 660 -43 q 703 -152 703 -119 q 660 -237 703 -207 q 541 -268 617 -268 q 483 -263 513 -268 q 422 -251 453 -259 l 422 -162 q 477 -180 450 -174 q 527 -186 503 -186 q 588 -168 566 -186 q 611 -119 611 -150 q 596 -70 611 -100 q 551 0 581 -41 l 617 0 "},"-":{"x_min":61,"x_max":408,"ha":469,"o":"m 61 426 l 408 426 l 408 320 l 61 320 l 61 426 "},"Q":{"x_min":78,"x_max":1061,"ha":1138,"o":"m 585 -20 q 215 122 353 -20 q 78 505 78 265 q 114 724 78 627 q 227 897 151 821 q 379 997 294 963 q 569 1031 465 1031 q 925 886 789 1031 q 1061 505 1061 742 q 959 167 1061 304 q 678 -8 857 31 q 767 -75 715 -53 q 894 -97 820 -97 l 916 -97 l 916 -220 q 719 -168 801 -220 q 585 -20 637 -117 m 569 53 q 820 167 735 53 q 905 505 905 281 q 820 843 905 729 q 569 958 735 958 q 317 843 402 958 q 233 505 233 729 q 317 167 233 281 q 569 53 402 53 "},"M":{"x_min":69,"x_max":1351,"ha":1422,"o":"m 77 0 l 77 72 l 206 72 l 206 940 l 69 940 l 69 1013 l 364 1013 l 719 292 l 1074 1013 l 1351 1013 l 1351 940 l 1217 940 l 1217 72 l 1346 72 l 1346 0 l 950 0 l 950 72 l 1079 72 l 1079 854 l 731 149 l 636 149 l 289 854 l 289 72 l 418 72 l 418 0 l 77 0 "},"C":{"x_min":78,"x_max":978.984375,"ha":1062,"o":"m 978 268 q 828 53 934 126 q 562 -20 723 -20 q 378 13 463 -20 q 227 113 293 47 q 114 286 151 189 q 78 505 78 383 q 214 886 78 741 q 573 1031 350 1031 q 749 1009 656 1031 q 951 943 843 987 l 951 710 l 874 710 q 773 897 849 837 q 561 958 698 958 q 316 843 399 958 q 233 505 233 728 q 316 167 233 282 q 561 53 399 53 q 748 106 675 53 q 854 268 821 160 l 978 268 "},"!":{"x_min":189,"x_max":369,"ha":558,"o":"m 189 70 q 214 134 189 108 q 279 161 240 161 q 342 134 316 161 q 369 70 369 108 q 342 6 369 32 q 279 -20 316 -20 q 214 6 240 -20 q 189 70 189 32 m 214 1013 l 344 1013 l 344 455 l 344 285 l 214 285 l 214 455 l 214 1013 "},"Ã§":{"x_min":69,"x_max":713.9375,"ha":778,"o":"m 713 217 q 612 40 687 101 q 417 -20 536 -20 q 164 84 260 -20 q 69 360 69 188 q 164 637 69 533 q 417 741 260 741 q 553 725 486 741 q 690 676 621 709 l 690 492 l 617 492 q 555 630 603 586 q 419 673 507 673 q 266 595 317 673 q 214 361 214 517 q 266 126 214 204 q 419 47 317 47 q 547 89 499 47 q 613 217 596 131 l 713 217 m 460 0 q 524 -81 503 -43 q 546 -152 546 -119 q 503 -237 546 -207 q 384 -268 460 -268 q 326 -263 356 -268 q 265 -251 296 -259 l 265 -162 q 320 -180 293 -174 q 370 -186 346 -186 q 431 -168 409 -186 q 454 -119 454 -150 q 439 -70 454 -100 q 394 0 424 -41 l 460 0 "},"Ãˆ":{"x_min":76.40625,"x_max":902,"ha":1013,"o":"m 76 0 l 76 72 l 205 72 l 205 940 l 76 940 l 76 1013 l 891 1013 l 891 787 l 808 787 l 808 929 l 343 929 l 343 590 l 675 590 l 675 717 l 758 717 l 758 380 l 675 380 l 675 507 l 343 507 l 343 83 l 819 83 l 819 225 l 902 225 l 902 0 l 76 0 m 459 1289 l 584 1109 l 504 1109 l 326 1289 l 459 1289 "},"{":{"x_min":174,"x_max":711,"ha":885,"o":"m 711 -156 l 711 -227 l 668 -227 q 442 -176 499 -227 q 385 23 385 -126 l 385 198 q 348 339 385 300 q 215 379 311 379 l 174 379 l 174 450 l 215 450 q 348 489 311 450 q 385 630 385 528 l 385 805 q 442 1005 385 955 q 668 1056 499 1056 l 711 1056 l 711 985 l 664 985 q 539 955 568 985 q 510 829 510 925 l 510 634 q 476 481 510 527 q 354 414 442 435 q 476 346 443 391 q 510 194 510 300 l 510 0 q 539 -126 510 -96 q 664 -156 568 -156 l 711 -156 "},"X":{"x_min":8,"x_max":982,"ha":989,"o":"m 459 433 l 212 72 l 343 72 l 343 0 l 8 0 l 8 72 l 124 72 l 415 497 l 120 940 l 12 940 l 12 1013 l 413 1013 l 413 940 l 294 940 l 511 614 l 734 940 l 604 940 l 604 1013 l 936 1013 l 936 940 l 821 940 l 554 550 l 873 72 l 982 72 l 982 0 l 581 0 l 581 72 l 701 72 l 459 433 "},"Ã´":{"x_min":69,"x_max":766,"ha":836,"o":"m 417 47 q 569 126 517 47 q 620 360 620 206 q 569 594 620 515 q 417 673 517 673 q 265 594 317 673 q 214 360 214 515 q 266 126 214 206 q 417 47 317 47 m 417 -20 q 164 84 260 -20 q 69 360 69 188 q 164 637 69 533 q 417 741 259 741 q 670 637 575 741 q 766 360 766 533 q 670 84 766 188 q 417 -20 575 -20 m 360 1111 l 474 1111 l 633 856 l 555 856 l 417 1032 l 279 856 l 201 856 l 360 1111 "},"Â¼":{"x_min":99.6875,"x_max":1303,"ha":1346,"o":"m 1095 206 l 1095 481 l 886 206 l 1095 206 m 1290 0 l 996 0 l 996 57 l 1095 57 l 1095 150 l 825 150 l 825 207 l 1096 566 l 1192 566 l 1192 206 l 1303 206 l 1303 150 l 1192 150 l 1192 57 l 1290 57 l 1290 0 m 120 453 l 120 510 l 236 510 l 236 940 l 99 868 l 99 932 l 262 1019 l 332 1019 l 332 510 l 450 510 l 450 453 l 120 453 m 941 1031 l 1043 1031 l 404 -20 l 302 -20 l 941 1031 "},"#":{"x_min":107,"x_max":1057,"ha":1163,"o":"m 706 611 l 515 611 l 458 385 l 651 385 l 706 611 m 610 997 l 541 716 l 732 716 l 802 997 l 919 997 l 848 716 l 1057 716 l 1057 611 l 821 611 l 766 385 l 979 385 l 979 281 l 740 281 l 670 0 l 553 0 l 624 281 l 432 281 l 362 0 l 247 0 l 316 281 l 107 281 l 107 385 l 342 385 l 398 611 l 184 611 l 184 716 l 424 716 l 495 997 l 610 997 "},"â±©":{"x_min":77,"x_max":1058.625,"ha":1038,"o":"m 77 0 l 77 72 l 206 72 l 206 940 l 77 940 l 77 1013 l 472 1013 l 472 940 l 344 940 l 344 556 l 779 940 l 670 940 l 670 1013 l 1006 1013 l 1006 940 l 892 940 l 457 558 l 943 72 l 1058 72 l 1058 -217 l 987 -217 q 974 -107 987 -215 q 894 0 962 0 l 823 0 l 344 480 l 344 72 l 472 72 l 472 0 l 77 0 "},"ÃŠ":{"x_min":76.40625,"x_max":902,"ha":1013,"o":"m 76 0 l 76 72 l 205 72 l 205 940 l 76 940 l 76 1013 l 891 1013 l 891 787 l 808 787 l 808 929 l 343 929 l 343 590 l 675 590 l 675 717 l 758 717 l 758 380 l 675 380 l 675 507 l 343 507 l 343 83 l 819 83 l 819 225 l 902 225 l 902 0 l 76 0 m 447 1289 l 567 1289 l 723 1109 l 645 1109 l 507 1218 l 369 1109 l 290 1109 l 447 1289 "},")":{"x_min":98,"x_max":432,"ha":542,"o":"m 98 -216 l 98 -149 q 248 52 202 -78 q 294 419 294 183 q 248 786 294 656 q 98 989 202 917 l 98 1055 q 347 821 263 981 q 432 419 432 660 q 347 17 432 178 q 98 -216 263 -142 "},"Ã…":{"x_min":-8,"x_max":1017,"ha":1004,"o":"m 602 1103 q 571 1176 602 1146 q 498 1207 541 1207 q 425 1177 455 1207 q 396 1103 396 1147 q 425 1030 396 1060 q 498 1000 455 1000 q 571 1030 541 1000 q 602 1103 602 1060 m 278 367 l 649 367 l 463 848 l 278 367 m -8 0 l -8 72 l 80 72 l 412 939 q 338 1005 363 964 q 313 1103 313 1046 q 367 1235 313 1180 q 498 1290 421 1290 q 630 1235 575 1290 q 685 1103 685 1180 q 658 1005 685 1048 q 583 939 632 962 l 917 72 l 1017 72 l 1017 0 l 649 0 l 649 72 l 761 72 l 676 294 l 250 294 l 165 72 l 277 72 l 277 0 l -8 0 "},"Ã¸":{"x_min":51.375,"x_max":778.890625,"ha":836,"o":"m 569 596 q 505 654 543 635 q 417 673 467 673 q 266 594 317 673 q 214 360 214 514 q 219 271 214 311 q 234 198 224 231 l 569 596 m 264 128 q 329 67 292 87 q 417 47 367 47 q 568 126 517 47 q 620 360 620 206 q 615 453 620 412 q 599 529 610 494 l 264 128 m 680 625 q 744 508 722 575 q 766 360 766 440 q 670 84 766 188 q 417 -20 575 -20 q 299 -2 353 -20 q 199 52 245 15 l 102 -64 l 51 -21 l 152 99 q 90 217 111 151 q 69 360 69 282 q 164 637 69 533 q 417 741 259 741 q 535 723 481 741 q 633 672 589 706 l 727 785 l 778 742 l 680 625 "},"Ã¢":{"x_min":69,"x_max":789,"ha":828,"o":"m 552 226 l 552 379 l 391 379 q 253 339 298 379 q 208 216 208 299 q 254 97 208 141 q 378 53 300 53 q 504 101 456 53 q 552 226 552 149 m 677 450 l 677 72 l 789 72 l 789 0 l 553 0 l 553 78 q 456 3 510 27 q 329 -20 402 -20 q 139 43 209 -20 q 69 216 69 107 q 149 390 69 328 q 377 452 230 452 l 553 452 l 553 501 q 503 628 553 583 q 362 673 453 673 q 243 639 288 673 q 188 539 199 605 l 124 539 l 124 685 q 250 727 189 713 q 370 741 312 741 q 598 666 520 741 q 677 450 677 592 m 328 1111 l 442 1111 l 602 856 l 522 856 l 385 1032 l 247 856 l 169 856 l 328 1111 "},"}":{"x_min":174,"x_max":710,"ha":884,"o":"m 174 -156 l 221 -156 q 345 -126 316 -156 q 374 0 374 -96 l 374 194 q 407 346 374 300 q 529 414 440 391 q 407 481 441 435 q 374 634 374 527 l 374 829 q 345 955 374 925 q 221 985 316 985 l 174 985 l 174 1056 l 216 1056 q 442 1005 385 1056 q 499 805 499 955 l 499 630 q 535 489 499 528 q 668 450 572 450 l 710 450 l 710 379 l 668 379 q 535 339 572 379 q 499 198 499 300 l 499 23 q 442 -176 499 -126 q 216 -227 385 -227 l 174 -227 l 174 -156 "},"Ã„":{"x_min":-8,"x_max":1017,"ha":1004,"o":"m 278 367 l 650 367 l 463 848 l 278 367 m -8 0 l -8 72 l 80 72 l 441 1013 l 555 1013 l 917 72 l 1017 72 l 1017 0 l 649 0 l 649 72 l 760 72 l 676 294 l 250 294 l 165 72 l 277 72 l 277 0 l -8 0 m 368 1278 q 424 1254 401 1278 q 448 1199 448 1230 q 425 1142 448 1165 q 368 1120 402 1120 q 312 1142 335 1120 q 290 1199 290 1165 q 313 1254 290 1230 q 368 1278 336 1278 m 633 1278 q 688 1254 665 1278 q 712 1199 712 1230 q 689 1142 712 1165 q 633 1120 666 1120 q 576 1142 599 1120 q 554 1199 554 1165 q 577 1254 554 1230 q 633 1278 600 1278 "},"Â¸":{"x_min":197.46875,"x_max":478,"ha":694,"o":"m 392 0 q 456 -81 435 -43 q 478 -152 478 -119 q 435 -237 478 -207 q 316 -268 392 -268 q 258 -263 288 -268 q 197 -251 228 -259 l 197 -162 q 252 -180 225 -174 q 302 -186 278 -186 q 363 -168 341 -186 q 386 -119 386 -150 q 371 -70 386 -100 q 326 0 356 -40 l 392 0 "},"a":{"x_min":69,"x_max":789,"ha":828,"o":"m 552 226 l 552 379 l 391 379 q 253 339 298 379 q 208 216 208 299 q 254 97 208 141 q 378 53 300 53 q 504 101 456 53 q 552 226 552 149 m 677 450 l 677 72 l 789 72 l 789 0 l 553 0 l 553 78 q 456 3 510 27 q 329 -20 402 -20 q 139 43 209 -20 q 69 216 69 107 q 149 390 69 328 q 377 452 230 452 l 553 452 l 553 501 q 503 628 553 583 q 362 673 453 673 q 243 639 288 673 q 188 539 199 605 l 124 539 l 124 685 q 250 727 189 713 q 370 741 312 741 q 598 666 520 741 q 677 450 677 592 "},"=":{"x_min":147,"x_max":1016,"ha":1163,"o":"m 147 629 l 1016 629 l 1016 520 l 147 520 l 147 629 m 147 352 l 1016 352 l 1016 243 l 147 243 l 147 352 "},"N":{"x_min":68,"x_max":1154,"ha":1215,"o":"m 68 0 l 68 72 l 205 72 l 205 940 l 68 940 l 68 1013 l 327 1013 l 935 213 l 935 940 l 799 940 l 799 1013 l 1154 1013 l 1154 940 l 1018 940 l 1018 -19 l 936 -19 l 288 833 l 288 72 l 424 72 l 424 0 l 68 0 "},"Ãº":{"x_min":37.421875,"x_max":843,"ha":895,"o":"m 491 721 l 725 721 l 725 72 l 843 72 l 843 0 l 600 0 l 600 127 q 510 17 565 55 q 383 -20 455 -20 q 206 48 263 -20 q 150 262 150 116 l 150 648 l 37 648 l 37 721 l 275 721 l 275 301 q 307 120 275 169 q 422 72 339 72 q 554 135 509 72 q 600 320 600 199 l 600 648 l 491 648 l 491 721 m 490 1111 l 625 1111 l 394 856 l 315 856 l 490 1111 "},"2":{"x_min":94.265625,"x_max":747,"ha":883,"o":"m 177 772 l 101 772 l 101 951 q 247 1010 174 990 q 391 1031 321 1031 q 641 954 549 1031 q 733 746 733 877 q 525 390 733 597 q 501 367 509 375 l 245 111 l 668 111 l 668 235 l 747 235 l 747 0 l 94 0 l 94 73 l 401 380 q 546 567 503 482 q 590 746 590 652 q 536 906 590 848 q 389 964 483 964 q 240 916 292 964 q 177 772 187 868 "},"Ã¼":{"x_min":37.421875,"x_max":843,"ha":895,"o":"m 491 721 l 725 721 l 725 72 l 843 72 l 843 0 l 600 0 l 600 127 q 510 17 565 55 q 383 -20 455 -20 q 206 48 263 -20 q 150 262 150 116 l 150 648 l 37 648 l 37 721 l 275 721 l 275 301 q 307 120 275 169 q 422 72 339 72 q 554 135 509 72 q 600 320 600 199 l 600 648 l 491 648 l 491 721 m 263 1064 q 319 1040 296 1064 q 343 984 343 1017 q 320 927 343 949 q 263 905 298 905 q 207 927 229 905 q 185 984 185 949 q 208 1040 185 1017 q 263 1064 231 1064 m 528 1064 q 583 1040 560 1064 q 607 984 607 1017 q 584 927 607 949 q 528 905 562 905 q 471 927 493 905 q 449 984 449 949 q 472 1040 449 1017 q 528 1064 495 1064 "},"Â¯":{"x_min":144,"x_max":550,"ha":694,"o":"m 144 1035 l 550 1035 l 550 935 l 144 935 l 144 1035 "},"Z":{"x_min":62.34375,"x_max":911,"ha":965,"o":"m 62 0 l 62 48 l 692 930 l 169 930 l 169 778 l 86 778 l 86 1013 l 885 1013 l 885 964 l 255 83 l 828 83 l 828 224 l 911 224 l 911 0 l 62 0 "},"u":{"x_min":37.421875,"x_max":843,"ha":895,"o":"m 491 721 l 725 721 l 725 72 l 843 72 l 843 0 l 600 0 l 600 127 q 510 17 565 55 q 383 -20 455 -20 q 206 48 263 -20 q 150 262 150 116 l 150 648 l 37 648 l 37 721 l 275 721 l 275 301 q 307 120 275 169 q 422 72 339 72 q 554 135 509 72 q 600 320 600 199 l 600 648 l 491 648 l 491 721 "},"Ã“":{"x_min":78,"x_max":1061,"ha":1138,"o":"m 569 53 q 820 167 735 53 q 905 505 905 281 q 820 843 905 729 q 569 958 735 958 q 317 843 402 958 q 233 505 233 729 q 317 167 233 281 q 569 53 402 53 m 569 -20 q 380 13 466 -20 q 227 113 293 47 q 114 286 151 189 q 78 505 78 382 q 114 724 78 627 q 227 897 151 821 q 379 997 294 963 q 569 1031 465 1031 q 925 886 789 1031 q 1061 505 1061 741 q 1023 286 1061 383 q 910 113 986 188 q 758 13 844 47 q 569 -20 673 -20 m 612 1288 l 745 1288 l 567 1109 l 488 1109 l 612 1288 "},"k":{"x_min":39.96875,"x_max":851,"ha":842,"o":"m 398 0 l 48 0 l 48 72 l 160 72 l 160 984 l 39 984 l 39 1056 l 285 1056 l 285 368 l 589 649 l 486 649 l 486 722 l 812 722 l 812 649 l 688 649 l 474 450 l 748 72 l 851 72 l 851 0 l 496 0 l 496 72 l 599 72 l 383 368 l 285 277 l 285 72 l 398 72 l 398 0 "},"Ã™":{"x_min":65,"x_max":1108,"ha":1170,"o":"m 195 940 l 65 940 l 65 1013 l 461 1013 l 461 940 l 332 940 l 332 416 q 395 145 332 222 q 614 69 458 69 q 832 145 769 69 q 896 416 896 222 l 896 940 l 766 940 l 766 1013 l 1108 1013 l 1108 940 l 979 940 l 979 402 q 890 75 979 171 q 588 -20 801 -20 q 285 76 375 -20 q 195 402 195 172 l 195 940 m 564 1288 l 688 1109 l 609 1109 l 431 1288 l 564 1288 "},"â±µ":{"x_min":77,"x_max":952,"ha":1029,"o":"m 869 507 l 344 507 l 344 72 l 472 72 l 472 0 l 77 0 l 77 72 l 206 72 l 206 940 l 77 940 l 77 1013 l 472 1013 l 472 940 l 344 940 l 344 590 l 869 590 l 869 717 l 952 717 l 952 380 l 869 380 l 869 507 "},"Â¢":{"x_min":104,"x_max":748.3125,"ha":883,"o":"m 426 672 q 294 583 338 661 q 251 360 251 505 q 294 136 251 214 q 426 48 338 58 l 426 672 m 748 216 q 660 52 724 111 q 494 -18 597 -5 l 494 -202 l 426 -202 l 426 -18 q 190 96 276 -5 q 104 363 104 199 q 190 630 104 528 q 426 733 276 733 l 426 920 l 494 920 l 494 739 q 613 718 556 733 q 724 676 670 702 l 724 492 l 652 492 q 600 619 639 575 q 494 672 561 663 l 494 48 q 594 99 555 56 q 647 216 633 142 l 748 216 "},"ÃŸ":{"x_min":39.96875,"x_max":867,"ha":928,"o":"m 635 820 q 587 945 635 901 q 458 989 539 989 q 326 945 368 989 q 285 807 285 901 l 285 0 l 39 0 l 39 72 l 160 72 l 160 804 q 238 989 160 923 q 459 1056 316 1056 q 680 985 604 1056 q 757 771 757 914 l 746 771 q 590 734 647 771 q 534 634 534 697 q 552 573 534 599 q 620 515 570 547 l 681 477 q 826 353 786 410 q 867 218 867 295 q 788 46 867 112 q 585 -20 710 -20 q 470 -7 527 -20 q 360 28 413 5 l 360 187 l 435 187 q 472 82 435 118 q 579 47 510 47 q 698 88 655 47 q 742 199 742 129 q 714 296 742 256 q 608 385 687 336 l 549 422 q 449 510 479 466 q 419 609 419 553 q 475 747 419 692 q 635 820 532 803 "},"Ã©":{"x_min":69,"x_max":750,"ha":821,"o":"m 750 347 l 214 347 l 214 341 q 269 121 214 195 q 431 47 324 47 q 566 90 513 47 q 639 218 618 133 l 739 218 q 629 39 710 99 q 418 -20 549 -20 q 164 84 260 -20 q 69 360 69 188 q 163 636 69 531 q 411 741 257 741 q 662 640 574 741 q 750 347 750 539 m 603 419 q 553 609 603 545 q 411 673 504 673 q 275 609 325 673 q 214 419 225 544 l 603 419 m 504 1111 l 639 1111 l 409 856 l 329 856 l 504 1111 "},"s":{"x_min":78,"x_max":642,"ha":713,"o":"m 78 39 l 78 208 l 151 208 q 199 87 151 127 q 341 47 247 47 q 469 78 425 47 q 514 170 514 110 q 481 247 514 218 q 345 309 449 276 l 255 340 q 120 415 162 370 q 79 529 79 459 q 151 684 79 628 q 352 741 224 741 q 472 726 409 741 q 603 682 535 711 l 603 525 l 530 525 q 483 634 530 595 q 357 673 437 673 q 237 645 278 673 q 197 562 197 618 q 227 489 197 516 q 349 433 258 461 l 448 402 q 596 323 551 370 q 642 199 642 275 q 563 38 642 97 q 347 -20 485 -20 q 211 -5 277 -20 q 78 39 144 9 "},"B":{"x_min":77,"x_max":936,"ha":1021,"o":"m 344 72 l 546 72 q 724 124 668 72 q 781 293 781 177 q 725 460 781 407 q 546 513 669 513 l 344 513 l 344 72 m 344 585 l 516 585 q 678 627 627 585 q 730 762 730 670 q 678 897 730 855 q 516 940 627 940 l 344 940 l 344 585 m 77 0 l 77 72 l 206 72 l 206 940 l 77 940 l 77 1013 l 577 1013 q 808 950 730 1013 q 886 762 886 887 q 831 618 886 672 q 674 553 777 565 q 869 470 802 536 q 936 293 936 404 q 841 71 936 142 q 544 0 746 0 l 77 0 "},"?":{"x_min":93.875,"x_max":677,"ha":744,"o":"m 244 70 q 270 134 244 108 q 334 161 296 161 q 398 134 372 161 q 425 70 425 108 q 398 6 425 32 q 334 -20 372 -20 q 270 6 296 -20 q 244 70 244 32 m 93 968 q 230 1015 165 999 q 352 1031 295 1031 q 589 958 502 1031 q 677 762 677 886 q 602 556 677 636 q 376 441 527 476 l 376 269 l 293 269 l 293 491 q 473 589 412 521 q 534 763 534 658 q 484 910 534 856 q 349 964 435 964 q 223 919 272 964 q 159 792 174 875 l 93 792 l 93 968 "},"H":{"x_min":77,"x_max":1135,"ha":1212,"o":"m 77 0 l 77 72 l 206 72 l 206 940 l 77 940 l 77 1013 l 472 1013 l 472 940 l 344 940 l 344 590 l 868 590 l 868 940 l 740 940 l 740 1013 l 1135 1013 l 1135 940 l 1006 940 l 1006 72 l 1135 72 l 1135 0 l 740 0 l 740 72 l 868 72 l 868 507 l 344 507 l 344 72 l 472 72 l 472 0 l 77 0 "},"Ã®":{"x_min":5.921875,"x_max":438.453125,"ha":444,"o":"m 294 72 l 412 72 l 412 0 l 50 0 l 50 72 l 169 72 l 169 649 l 50 649 l 50 722 l 294 722 l 294 72 m 164 1111 l 279 1111 l 438 856 l 359 856 l 221 1032 l 84 856 l 5 856 l 164 1111 "},"c":{"x_min":69,"x_max":713.9375,"ha":778,"o":"m 713 216 q 612 40 687 100 q 417 -20 536 -20 q 164 84 260 -20 q 69 360 69 188 q 164 637 69 533 q 417 741 260 741 q 553 725 486 741 q 690 676 621 709 l 690 492 l 617 492 q 555 630 603 586 q 418 673 507 673 q 266 595 317 673 q 214 360 214 516 q 266 125 214 204 q 418 47 317 47 q 547 89 499 47 q 613 216 595 131 l 713 216 "},"Â¶":{"x_min":106.828125,"x_max":794,"ha":884,"o":"m 429 1014 l 794 1014 l 794 941 l 714 941 l 714 -133 l 641 -133 l 641 941 l 485 941 l 485 -133 l 412 -133 l 412 446 q 186 522 266 446 q 106 724 106 598 q 195 934 106 854 q 429 1014 283 1014 "},"Â¥":{"x_min":-11,"x_max":888,"ha":884,"o":"m 244 0 l 244 72 l 374 72 l 374 321 l 99 321 l 99 392 l 374 392 l 374 436 l 317 532 l 99 532 l 99 603 l 277 603 l 82 940 l -11 940 l -11 1013 l 364 1013 l 364 940 l 245 940 l 478 530 l 707 940 l 595 940 l 595 1013 l 888 1013 l 888 940 l 791 940 l 599 603 l 783 603 l 783 532 l 558 532 l 510 449 l 510 392 l 783 392 l 783 321 l 510 321 l 510 72 l 639 72 l 639 0 l 244 0 "},"(":{"x_min":110,"x_max":443,"ha":542,"o":"m 443 -216 q 194 17 278 -142 q 110 419 110 178 q 194 821 110 660 q 443 1055 278 981 l 443 989 q 293 786 338 917 q 248 419 248 656 q 293 52 248 183 q 443 -149 338 -78 l 443 -216 "},"â�£":{"x_min":99,"x_max":962,"ha":1061,"o":"m 99 140 l 208 140 l 208 -206 l 853 -206 l 853 140 l 962 140 l 962 -316 l 99 -316 l 99 140 "},"U":{"x_min":65,"x_max":1108,"ha":1170,"o":"m 195 940 l 65 940 l 65 1013 l 461 1013 l 461 940 l 332 940 l 332 416 q 395 145 332 222 q 614 69 458 69 q 832 145 769 69 q 896 416 896 222 l 896 940 l 766 940 l 766 1013 l 1108 1013 l 1108 940 l 979 940 l 979 402 q 890 75 979 171 q 588 -20 801 -20 q 285 76 375 -20 q 195 402 195 172 l 195 940 "},"Ã‘":{"x_min":68,"x_max":1154,"ha":1215,"o":"m 68 0 l 68 72 l 205 72 l 205 940 l 68 940 l 68 1013 l 327 1013 l 935 213 l 935 940 l 799 940 l 799 1013 l 1154 1013 l 1154 940 l 1018 940 l 1018 -19 l 936 -19 l 288 833 l 288 72 l 424 72 l 424 0 l 68 0 m 599 1163 l 567 1182 q 539 1196 553 1191 q 514 1201 525 1201 q 470 1181 487 1201 q 449 1131 452 1162 l 385 1131 q 419 1239 385 1199 q 512 1280 454 1280 q 558 1273 537 1280 q 616 1246 579 1267 l 650 1228 q 680 1214 665 1219 q 707 1210 695 1210 q 751 1228 735 1210 q 767 1280 767 1247 l 832 1280 q 796 1169 832 1208 q 697 1131 761 1131 q 603 1161 652 1131 l 599 1163 "},"F":{"x_min":77,"x_max":906,"ha":964,"o":"m 77 0 l 77 72 l 206 72 l 206 940 l 77 940 l 77 1013 l 906 1013 l 906 787 l 823 787 l 823 929 l 344 929 l 344 590 l 690 590 l 690 717 l 773 717 l 773 380 l 690 380 l 690 507 l 344 507 l 344 72 l 506 72 l 506 0 l 77 0 "},"Â­":{"x_min":61,"x_max":408,"ha":469,"o":"m 61 426 l 408 426 l 408 320 l 61 320 l 61 426 "},":":{"x_min":144,"x_max":324,"ha":467,"o":"m 144 70 q 170 134 144 108 q 234 161 196 161 q 297 134 271 161 q 324 70 324 108 q 298 6 324 32 q 234 -20 272 -20 q 169 6 195 -20 q 144 70 144 32 m 144 512 q 170 576 144 550 q 234 603 196 603 q 298 577 272 603 q 324 512 324 551 q 298 447 324 473 q 234 422 272 422 q 170 448 196 422 q 144 512 144 474 "},"Ã›":{"x_min":65,"x_max":1108,"ha":1170,"o":"m 195 940 l 65 940 l 65 1013 l 461 1013 l 461 940 l 332 940 l 332 416 q 395 145 332 222 q 614 69 458 69 q 832 145 769 69 q 896 416 896 222 l 896 940 l 766 940 l 766 1013 l 1108 1013 l 1108 940 l 979 940 l 979 402 q 890 75 979 171 q 588 -20 801 -20 q 285 76 375 -20 q 195 402 195 172 l 195 940 m 552 1288 l 671 1288 l 828 1109 l 749 1109 l 612 1218 l 474 1109 l 396 1109 l 552 1288 "},"*":{"x_min":22.203125,"x_max":671.46875,"ha":694,"o":"m 671 839 l 406 715 l 671 590 l 619 510 l 388 657 l 388 399 l 305 399 l 305 657 l 73 510 l 22 590 l 287 714 l 22 839 l 73 919 l 305 772 l 305 1031 l 388 1031 l 388 772 l 619 919 l 671 839 "},"Â°":{"x_min":132,"x_max":562,"ha":694,"o":"m 347 938 q 260 902 295 938 q 225 814 225 866 q 259 728 225 763 q 347 694 294 694 q 433 728 398 694 q 469 814 469 763 q 433 901 469 865 q 347 938 397 938 m 346 1032 q 430 1015 390 1032 q 499 967 470 998 q 546 897 530 936 q 562 814 562 859 q 499 663 562 725 q 345 601 436 601 q 193 662 254 601 q 132 814 132 723 q 194 968 132 905 q 346 1032 256 1032 "},"V":{"x_min":-13,"x_max":1024,"ha":1004,"o":"m 243 941 l 542 163 l 840 941 l 727 941 l 727 1014 l 1024 1014 l 1024 941 l 925 941 l 564 1 l 447 1 l 88 941 l -13 941 l -13 1014 l 356 1014 l 356 941 l 243 941 "},"Ã¥":{"x_min":69,"x_max":789,"ha":828,"o":"m 552 226 l 552 379 l 391 379 q 253 339 298 379 q 208 216 208 299 q 254 97 208 141 q 378 53 300 53 q 504 101 456 53 q 552 226 552 149 m 677 450 l 677 72 l 789 72 l 789 0 l 553 0 l 553 78 q 456 3 511 27 q 330 -20 402 -20 q 139 43 210 -20 q 69 216 69 107 q 149 390 69 328 q 377 452 230 452 l 553 452 l 553 501 q 503 628 553 583 q 362 673 453 673 q 244 639 288 673 q 189 539 200 605 l 124 539 l 124 685 q 250 727 189 713 q 370 741 312 741 q 598 666 520 741 q 677 450 677 592 m 572 1033 q 518 901 572 955 q 385 847 464 847 q 253 901 307 847 q 200 1033 200 955 q 253 1165 200 1111 q 385 1220 307 1220 q 518 1165 464 1220 q 572 1033 572 1111 m 489 1033 q 459 1106 489 1076 q 386 1137 429 1137 q 312 1107 341 1137 q 283 1033 283 1077 q 312 959 283 989 q 386 930 341 930 q 459 960 429 930 q 489 1033 489 990 "},"Â ":{"x_min":0,"x_max":0,"ha":441},"0":{"x_min":92,"x_max":792,"ha":884,"o":"m 442 47 q 597 161 545 47 q 649 505 649 275 q 597 849 649 735 q 442 964 545 964 q 286 849 338 964 q 235 505 235 735 q 286 161 235 275 q 442 47 338 47 m 442 -20 q 184 118 277 -20 q 92 505 92 256 q 184 892 92 754 q 442 1031 277 1031 q 699 892 607 1031 q 792 505 792 754 q 699 118 792 256 q 442 -20 607 -20 "},"Â¾":{"x_min":68,"x_max":1303,"ha":1346,"o":"m 1095 206 l 1095 481 l 886 206 l 1095 206 m 1290 0 l 996 0 l 996 57 l 1095 57 l 1095 150 l 825 150 l 825 207 l 1096 566 l 1192 566 l 1192 206 l 1303 206 l 1303 150 l 1192 150 l 1192 57 l 1290 57 l 1290 0 m 84 995 q 179 1022 134 1013 q 265 1031 225 1031 q 409 994 358 1031 q 460 890 460 957 q 424 807 460 841 q 323 762 388 773 q 445 711 404 751 q 487 603 487 670 q 427 484 487 525 q 257 443 368 443 q 161 452 208 443 q 68 480 114 461 l 68 596 l 117 596 q 150 519 117 545 q 246 493 184 493 q 346 522 311 493 q 381 608 381 552 q 346 703 381 671 q 242 736 311 736 l 207 736 l 207 786 l 225 786 q 324 811 290 786 q 358 886 358 836 q 330 956 358 932 q 251 981 303 981 q 166 959 196 981 q 132 894 137 937 l 84 894 l 84 995 m 941 1031 l 1043 1031 l 404 -19 l 302 -19 l 941 1031 "},"@":{"x_min":92,"x_max":1291,"ha":1389,"o":"m 878 167 q 788 85 838 112 q 675 58 738 58 q 482 142 556 58 q 409 363 409 227 q 482 584 409 500 q 675 669 556 669 q 788 642 738 669 q 878 559 838 615 l 878 656 l 984 656 l 984 131 q 1163 241 1099 156 q 1227 454 1227 326 q 1203 596 1227 529 q 1135 720 1180 663 q 959 859 1063 811 q 734 907 856 907 q 614 894 673 907 q 496 854 554 881 q 283 663 359 791 q 207 368 207 535 q 241 159 207 255 q 339 -5 275 64 q 515 -128 413 -86 q 733 -171 616 -171 q 897 -145 821 -171 q 1038 -68 973 -119 l 1074 -115 q 908 -210 1001 -178 q 704 -242 815 -242 q 467 -196 580 -242 q 269 -68 354 -151 q 137 128 182 17 q 92 368 92 239 q 137 603 92 492 q 269 800 182 714 q 472 931 355 885 q 721 978 589 978 q 986 921 866 978 q 1186 759 1105 865 q 1264 614 1238 692 q 1291 452 1291 536 q 1180 164 1291 270 q 878 59 1069 59 l 878 167 m 878 328 l 878 399 q 829 537 878 484 q 703 590 781 590 q 575 530 621 590 q 530 363 530 471 q 576 196 530 255 q 704 137 622 137 q 829 190 781 137 q 878 328 878 243 "},"Ã¶":{"x_min":69,"x_max":766,"ha":836,"o":"m 417 47 q 569 126 517 47 q 620 360 620 206 q 569 594 620 515 q 417 673 517 673 q 265 594 317 673 q 214 360 214 515 q 266 126 214 206 q 417 47 317 47 m 417 -20 q 164 84 260 -20 q 69 360 69 188 q 164 637 69 533 q 417 741 259 741 q 670 637 575 741 q 766 360 766 533 q 670 84 766 188 q 417 -20 575 -20 m 285 1064 q 341 1040 318 1064 q 365 984 365 1017 q 342 927 365 949 q 285 905 320 905 q 229 927 251 905 q 207 984 207 949 q 230 1040 207 1017 q 285 1064 253 1064 m 549 1064 q 604 1040 581 1064 q 628 984 628 1017 q 605 927 628 949 q 549 905 583 905 q 492 927 514 905 q 470 984 470 949 q 493 1040 470 1017 q 549 1064 516 1064 "},"i":{"x_min":50,"x_max":412,"ha":444,"o":"m 135 945 q 157 999 135 976 q 212 1023 180 1023 q 266 999 243 1023 q 289 945 289 976 q 266 891 289 913 q 212 869 244 869 q 157 891 180 869 q 135 945 135 913 m 294 72 l 412 72 l 412 0 l 50 0 l 50 72 l 169 72 l 169 649 l 50 649 l 50 722 l 294 722 l 294 72 "},"âž¡":{"x_min":79,"x_max":1112,"ha":1164,"o":"m 79 270 l 79 630 l 788 630 l 788 733 l 829 733 l 1112 453 l 1112 446 l 829 166 l 788 166 l 788 270 l 79 270 "},"Ã•":{"x_min":78,"x_max":1061,"ha":1138,"o":"m 569 53 q 820 167 735 53 q 905 505 905 281 q 820 843 905 729 q 569 958 735 958 q 317 843 402 958 q 233 505 233 729 q 317 167 233 281 q 569 53 402 53 m 569 -20 q 380 13 466 -20 q 227 113 293 47 q 114 286 151 189 q 78 505 78 382 q 114 724 78 627 q 227 897 151 821 q 379 997 294 963 q 569 1031 465 1031 q 925 886 789 1031 q 1061 505 1061 741 q 1023 286 1061 383 q 910 113 986 188 q 758 13 844 47 q 569 -20 673 -20 m 561 1163 l 528 1182 q 501 1196 515 1191 q 475 1201 487 1201 q 431 1181 449 1201 q 411 1131 414 1162 l 347 1131 q 381 1239 347 1199 q 474 1280 416 1280 q 519 1273 498 1280 q 578 1246 540 1267 l 611 1228 q 641 1214 626 1219 q 668 1210 656 1210 q 712 1228 696 1210 q 728 1280 728 1247 l 793 1280 q 757 1169 793 1208 q 659 1131 722 1131 q 564 1161 613 1131 l 561 1163 "},"Ã¾":{"x_min":39.96875,"x_max":819,"ha":889,"o":"m 285 396 l 285 324 q 334 126 285 194 q 479 58 384 58 q 624 134 574 58 q 673 360 673 211 q 624 586 673 510 q 479 663 574 663 q 334 594 384 663 q 285 396 285 525 m 160 984 l 39 984 l 39 1056 l 285 1056 l 285 608 q 378 708 321 676 q 518 741 434 741 q 734 635 650 741 q 819 360 819 530 q 734 85 819 191 q 518 -20 650 -20 q 378 12 434 -20 q 285 112 321 44 l 285 -216 l 403 -216 l 403 -289 l 40 -289 l 40 -216 l 160 -216 l 160 984 "},"]":{"x_min":107.1875,"x_max":423,"ha":542,"o":"m 423 1056 l 423 -183 l 107 -183 l 107 -111 l 293 -111 l 293 984 l 107 984 l 107 1056 l 423 1056 "},"m":{"x_min":50.640625,"x_max":1280,"ha":1318,"o":"m 721 581 q 812 700 756 660 q 943 741 868 741 q 1112 670 1056 741 q 1168 458 1168 600 l 1168 72 l 1280 72 l 1280 0 l 934 0 l 934 72 l 1043 72 l 1043 444 q 1010 602 1043 555 q 902 649 977 649 q 775 585 819 649 q 732 401 732 522 l 732 72 l 840 72 l 840 0 l 498 0 l 498 72 l 607 72 l 607 449 q 574 603 607 557 q 466 649 541 649 q 338 585 382 649 q 295 401 295 522 l 295 72 l 404 72 l 404 0 l 58 0 l 58 72 l 170 72 l 170 650 l 50 650 l 50 721 l 295 721 l 295 593 q 383 702 329 664 q 505 741 437 741 q 645 699 589 741 q 721 581 702 657 "},"8":{"x_min":93,"x_max":790,"ha":884,"o":"m 647 276 q 593 444 647 384 q 441 505 539 505 q 289 444 343 505 q 236 276 236 384 q 289 107 236 167 q 441 47 343 47 q 593 107 539 47 q 647 276 647 167 m 619 768 q 572 912 619 860 q 441 964 525 964 q 311 912 358 964 q 264 768 264 860 q 311 623 264 675 q 441 572 358 572 q 572 623 525 572 q 619 768 619 675 m 545 538 q 725 453 661 523 q 790 276 790 384 q 699 56 790 133 q 441 -20 609 -20 q 183 56 274 -20 q 93 276 93 133 q 157 453 93 384 q 337 538 221 523 q 180 616 235 557 q 126 768 126 676 q 210 960 126 890 q 441 1031 294 1031 q 672 960 588 1031 q 757 768 757 890 q 702 616 757 676 q 545 538 647 557 "},"R":{"x_min":77,"x_max":1079.71875,"ha":1047,"o":"m 666 503 q 747 459 713 490 q 808 372 781 428 l 956 72 l 1079 72 l 1079 0 l 840 0 l 682 322 q 599 443 637 416 q 495 471 561 471 l 344 471 l 344 72 l 487 72 l 487 0 l 77 0 l 77 72 l 206 72 l 206 940 l 77 940 l 77 1013 l 590 1013 q 818 942 738 1013 q 899 742 899 871 q 840 578 899 638 q 666 503 781 517 m 344 544 l 544 544 q 695 592 646 544 q 744 742 744 640 q 695 892 744 844 q 544 940 646 940 l 344 940 l 344 544 "},"Ã¡":{"x_min":69,"x_max":789,"ha":828,"o":"m 552 226 l 552 379 l 391 379 q 253 339 298 379 q 208 216 208 299 q 254 97 208 141 q 378 53 300 53 q 504 101 456 53 q 552 226 552 149 m 677 450 l 677 72 l 789 72 l 789 0 l 553 0 l 553 78 q 456 3 510 27 q 329 -20 402 -20 q 139 43 209 -20 q 69 216 69 107 q 149 390 69 328 q 377 452 230 452 l 553 452 l 553 501 q 503 628 553 583 q 362 673 453 673 q 243 639 288 673 q 188 539 199 605 l 124 539 l 124 685 q 250 727 189 713 q 370 741 312 741 q 598 666 520 741 q 677 450 677 592 m 479 1111 l 615 1111 l 384 856 l 304 856 l 479 1111 "},"Ã—":{"x_min":191.921875,"x_max":972.5,"ha":1164,"o":"m 972 749 l 658 434 l 972 122 l 894 46 l 581 358 l 269 46 l 191 122 l 503 434 l 191 749 l 269 825 l 581 513 l 894 825 l 972 749 "},"o":{"x_min":69,"x_max":766,"ha":836,"o":"m 417 47 q 569 126 517 47 q 620 360 620 206 q 569 594 620 515 q 417 673 517 673 q 265 594 317 673 q 214 360 214 515 q 266 126 214 206 q 417 47 317 47 m 417 -20 q 164 84 260 -20 q 69 360 69 188 q 164 637 69 533 q 417 741 259 741 q 670 637 575 741 q 766 360 766 533 q 670 84 766 188 q 417 -20 575 -20 "},"5":{"x_min":118,"x_max":776,"ha":883,"o":"m 698 1013 l 698 902 l 235 902 l 235 611 q 317 647 270 635 q 422 660 364 660 q 681 569 586 660 q 776 320 776 478 q 680 69 776 159 q 410 -20 584 -20 q 267 -3 340 -20 q 118 48 194 13 l 118 245 l 197 245 q 252 97 197 148 q 408 47 308 47 q 574 117 516 47 q 633 320 633 188 q 575 522 633 452 q 410 592 518 592 q 303 571 350 592 q 221 504 257 549 l 163 504 l 163 1013 l 698 1013 "},"Ãµ":{"x_min":69,"x_max":766,"ha":836,"o":"m 417 47 q 569 126 517 47 q 620 360 620 206 q 569 594 620 515 q 417 673 517 673 q 265 594 317 673 q 214 360 214 515 q 266 126 214 206 q 417 47 317 47 m 417 -20 q 164 84 260 -20 q 69 360 69 188 q 164 637 69 533 q 417 741 259 741 q 670 637 575 741 q 766 360 766 533 q 670 84 766 188 q 417 -20 575 -20 m 414 929 l 376 966 q 347 987 358 982 q 322 993 335 993 q 276 966 293 993 q 260 888 260 939 l 194 888 q 228 1029 194 979 q 325 1079 263 1079 q 373 1069 351 1079 q 420 1037 395 1060 l 458 1000 q 486 979 474 984 q 512 974 497 974 q 558 1001 541 974 q 575 1079 575 1028 l 641 1079 q 606 937 641 987 q 509 888 571 888 q 461 897 483 888 q 414 929 439 907 "},"7":{"x_min":117,"x_max":783.296875,"ha":884,"o":"m 783 943 l 387 0 l 286 0 l 663 902 l 196 902 l 196 777 l 117 777 l 117 1013 l 783 1013 l 783 943 "},"K":{"x_min":77,"x_max":1058.625,"ha":1038,"o":"m 77 0 l 77 72 l 206 72 l 206 940 l 77 940 l 77 1013 l 472 1013 l 472 940 l 344 940 l 344 556 l 779 940 l 670 940 l 670 1013 l 1006 1013 l 1006 940 l 892 940 l 457 558 l 943 72 l 1058 72 l 1058 0 l 823 0 l 344 480 l 344 72 l 472 72 l 472 0 l 77 0 "},",":{"x_min":50.578125,"x_max":305,"ha":442,"o":"m 50 -135 q 144 -24 114 -88 q 174 128 174 38 l 174 154 l 305 154 q 255 -45 305 37 q 104 -189 205 -128 l 50 -135 "},"d":{"x_min":69,"x_max":848.359375,"ha":889,"o":"m 729 72 l 848 72 l 848 0 l 604 0 l 604 112 q 510 12 567 44 q 370 -20 454 -20 q 153 85 237 -20 q 69 360 69 191 q 153 635 69 530 q 370 741 237 741 q 510 708 454 741 q 604 608 567 676 l 604 984 l 486 984 l 486 1056 l 729 1056 l 729 72 m 604 324 l 604 396 q 554 594 604 525 q 409 663 504 663 q 264 586 313 663 q 214 360 214 510 q 264 134 214 211 q 409 58 313 58 q 554 126 504 58 q 604 324 604 194 "},"Â¨":{"x_min":136,"x_max":558,"ha":694,"o":"m 214 1065 q 270 1041 247 1065 q 294 985 294 1018 q 271 928 294 950 q 214 906 249 906 q 158 928 180 906 q 136 985 136 950 q 159 1041 136 1018 q 214 1065 182 1065 m 479 1065 q 534 1041 511 1065 q 558 985 558 1018 q 535 928 558 950 q 479 906 513 906 q 422 928 444 906 q 400 985 400 950 q 423 1041 400 1018 q 479 1065 446 1065 "},"Ã�?":{"x_min":78,"x_max":1061,"ha":1138,"o":"m 569 53 q 820 167 735 53 q 905 505 905 281 q 820 843 905 729 q 569 958 735 958 q 317 843 402 958 q 233 505 233 729 q 317 167 233 281 q 569 53 402 53 m 569 -20 q 380 13 466 -20 q 227 113 293 47 q 114 286 151 189 q 78 505 78 382 q 114 724 78 627 q 227 897 151 821 q 379 997 294 963 q 569 1031 465 1031 q 925 886 789 1031 q 1061 505 1061 741 q 1023 286 1061 383 q 910 113 986 188 q 758 13 844 47 q 569 -20 673 -20 m 509 1288 l 629 1288 l 785 1109 l 707 1109 l 569 1218 l 431 1109 l 353 1109 l 509 1288 "},"E":{"x_min":76.40625,"x_max":902,"ha":1013,"o":"m 76 0 l 76 72 l 205 72 l 205 940 l 76 940 l 76 1013 l 891 1013 l 891 787 l 808 787 l 808 929 l 343 929 l 343 590 l 675 590 l 675 717 l 758 717 l 758 380 l 675 380 l 675 507 l 343 507 l 343 83 l 819 83 l 819 225 l 902 225 l 902 0 l 76 0 "},"Y":{"x_min":-16,"x_max":929,"ha":917,"o":"m 262 0 l 262 72 l 392 72 l 392 436 l 78 940 l -16 940 l -16 1013 l 360 1013 l 360 940 l 242 940 l 495 530 l 748 940 l 635 940 l 635 1013 l 929 1013 l 929 940 l 833 940 l 529 449 l 529 72 l 658 72 l 658 0 l 262 0 "},"\"":{"x_min":136,"x_max":502,"ha":638,"o":"m 244 1014 l 244 637 l 136 637 l 136 1014 l 244 1014 m 502 1014 l 502 637 l 394 637 l 394 1014 l 502 1014 "},"Ãª":{"x_min":69,"x_max":750,"ha":821,"o":"m 750 347 l 214 347 l 214 341 q 269 121 214 195 q 431 47 324 47 q 566 90 513 47 q 639 218 618 133 l 739 218 q 629 39 710 99 q 418 -20 549 -20 q 164 84 260 -20 q 69 360 69 188 q 163 636 69 531 q 411 741 257 741 q 662 640 574 741 q 750 347 750 539 m 603 419 q 553 609 603 545 q 411 673 504 673 q 275 609 325 673 q 214 419 225 544 l 603 419 m 353 1111 l 467 1111 l 626 856 l 548 856 l 410 1032 l 273 856 l 194 856 l 353 1111 "},"Ã�":{"x_min":64,"x_max":486,"ha":548,"o":"m 343 72 l 471 72 l 471 0 l 76 0 l 76 72 l 205 72 l 205 940 l 76 940 l 76 1013 l 471 1013 l 471 940 l 343 940 l 343 72 m 142 1278 q 198 1254 175 1278 q 222 1199 222 1230 q 199 1142 222 1165 q 142 1120 176 1120 q 86 1142 109 1120 q 64 1199 64 1165 q 87 1254 64 1230 q 142 1278 110 1278 m 407 1278 q 462 1254 439 1278 q 486 1199 486 1230 q 463 1142 486 1165 q 407 1120 440 1120 q 350 1142 373 1120 q 328 1199 328 1165 q 351 1254 328 1230 q 407 1278 374 1278 "},"Ã‚":{"x_min":-8,"x_max":1017,"ha":1004,"o":"m 278 367 l 650 367 l 464 848 l 278 367 m -8 0 l -8 72 l 80 72 l 441 1013 l 556 1013 l 917 72 l 1017 72 l 1017 0 l 649 0 l 649 72 l 761 72 l 676 294 l 250 294 l 165 72 l 277 72 l 277 0 l -8 0 m 441 1288 l 561 1288 l 718 1109 l 639 1109 l 501 1218 l 363 1109 l 285 1109 l 441 1288 "},"Ã�":{"x_min":77,"x_max":472,"ha":549,"o":"m 344 72 l 472 72 l 472 0 l 77 0 l 77 72 l 206 72 l 206 940 l 77 940 l 77 1013 l 472 1013 l 472 940 l 344 940 l 344 72 m 318 1289 l 451 1289 l 274 1109 l 195 1109 l 318 1289 "},"Â´":{"x_min":266.515625,"x_max":576.4375,"ha":694,"o":"m 441 1111 l 576 1111 l 345 856 l 266 856 l 441 1111 "},"Ã¬":{"x_min":-9.6875,"x_max":412,"ha":444,"o":"m 294 72 l 412 72 l 412 0 l 50 0 l 50 72 l 169 72 l 169 649 l 50 649 l 50 722 l 294 722 l 294 72 m 123 1110 l 300 855 l 220 855 l -9 1110 l 123 1110 "},"Â±":{"x_min":147,"x_max":1016,"ha":1163,"o":"m 636 871 l 636 606 l 1016 606 l 1016 496 l 636 496 l 636 230 l 527 230 l 527 496 l 147 496 l 147 606 l 527 606 l 527 871 l 636 871 m 147 109 l 1016 109 l 1016 0 l 147 0 l 147 109 "},"Ãš":{"x_min":65,"x_max":1108,"ha":1170,"o":"m 195 940 l 65 940 l 65 1013 l 461 1013 l 461 940 l 332 940 l 332 416 q 395 145 332 222 q 614 69 458 69 q 832 145 769 69 q 896 416 896 222 l 896 940 l 766 940 l 766 1013 l 1108 1013 l 1108 940 l 979 940 l 979 402 q 890 75 979 171 q 588 -20 801 -20 q 285 76 375 -20 q 195 402 195 172 l 195 940 m 654 1288 l 788 1288 l 610 1109 l 531 1109 l 654 1288 "},"|":{"x_min":179,"x_max":289,"ha":468,"o":"m 289 1062 l 289 -328 l 179 -328 l 179 1062 l 289 1062 "},"â±¬":{"x_min":56,"x_max":681,"ha":732,"o":"m 56 0 l 56 58 l 507 649 l 150 649 l 150 524 l 78 524 l 78 722 l 668 722 l 668 663 l 216 72 l 681 72 l 681 -192 l 610 -192 l 599 -96 q 520 0 588 0 l 56 0 "},"Â§":{"x_min":62,"x_max":632,"ha":694,"o":"m 256 635 q 191 576 210 604 q 173 512 173 548 q 419 284 173 422 l 440 272 q 500 330 480 298 q 521 402 521 363 q 473 498 521 453 q 256 635 426 544 m 562 993 l 562 857 l 499 857 q 463 933 499 905 q 368 962 428 962 q 261 929 300 962 q 222 839 222 896 q 388 681 222 774 q 414 666 406 670 q 589 541 547 592 q 632 423 632 490 q 596 315 632 358 q 483 243 560 273 q 560 168 536 211 q 585 64 585 125 q 515 -78 585 -24 q 329 -132 446 -132 q 214 -122 268 -132 q 108 -93 160 -113 l 108 47 l 171 47 q 207 -34 171 -7 q 317 -62 244 -62 q 428 -28 387 -62 q 470 61 470 4 q 315 224 470 137 q 293 236 301 232 q 104 370 147 319 q 62 488 62 421 q 101 597 62 552 q 215 663 141 642 q 133 739 160 696 q 107 835 107 782 q 174 978 107 924 q 355 1032 242 1032 q 459 1022 408 1032 q 562 993 511 1012 "},"Ã�":{"x_min":-16,"x_max":929,"ha":917,"o":"m 262 0 l 262 72 l 392 72 l 392 436 l 78 940 l -16 940 l -16 1013 l 360 1013 l 360 940 l 242 940 l 495 530 l 748 940 l 635 940 l 635 1013 l 929 1013 l 929 940 l 833 940 l 529 449 l 529 72 l 658 72 l 658 0 l 262 0 m 501 1288 l 635 1288 l 457 1109 l 377 1109 l 501 1288 "},"b":{"x_min":39.96875,"x_max":819,"ha":889,"o":"m 160 72 l 160 984 l 39 984 l 39 1056 l 285 1056 l 285 608 q 378 708 321 676 q 518 741 434 741 q 734 635 650 741 q 819 360 819 530 q 734 85 819 191 q 518 -20 650 -20 q 378 12 434 -20 q 285 112 321 44 l 285 0 l 40 0 l 40 72 l 160 72 m 285 324 q 334 126 285 194 q 479 58 384 58 q 624 134 574 58 q 673 360 673 211 q 624 586 673 510 q 479 663 574 663 q 334 594 384 663 q 285 396 285 525 l 285 324 "},"q":{"x_min":69,"x_max":848,"ha":889,"o":"m 729 649 l 729 -216 l 848 -216 l 848 -289 l 486 -289 l 486 -216 l 604 -216 l 604 112 q 510 12 567 44 q 370 -20 454 -20 q 153 85 237 -20 q 69 360 69 191 q 153 635 69 530 q 370 741 237 741 q 510 708 454 741 q 604 608 567 676 l 604 722 l 848 722 l 848 649 l 729 649 m 604 396 q 554 594 604 525 q 409 663 504 663 q 263 586 313 663 q 214 360 214 510 q 263 134 214 211 q 409 58 313 58 q 554 126 504 58 q 604 324 604 194 l 604 396 "},"â±ª":{"x_min":39.96875,"x_max":851,"ha":842,"o":"m 398 0 l 48 0 l 48 72 l 160 72 l 160 984 l 39 984 l 39 1056 l 285 1056 l 285 368 l 589 649 l 486 649 l 486 722 l 812 722 l 812 649 l 688 649 l 474 450 l 748 72 l 851 72 l 851 -192 l 781 -192 l 770 -96 q 691 0 759 0 l 496 0 l 496 72 l 599 72 l 383 368 l 285 277 l 285 72 l 398 72 l 398 0 "},"Ã–":{"x_min":78,"x_max":1061,"ha":1138,"o":"m 569 53 q 820 167 735 53 q 905 505 905 281 q 820 843 905 729 q 569 958 735 958 q 317 843 402 958 q 233 505 233 729 q 317 167 233 281 q 569 53 402 53 m 569 -20 q 380 13 466 -20 q 227 113 293 47 q 114 286 151 189 q 78 505 78 382 q 114 724 78 627 q 227 897 151 821 q 379 997 294 963 q 569 1031 465 1031 q 925 886 789 1031 q 1061 505 1061 741 q 1023 286 1061 383 q 910 113 986 188 q 758 13 844 47 q 569 -20 673 -20 m 437 1278 q 493 1254 470 1278 q 517 1199 517 1230 q 494 1142 517 1165 q 437 1120 471 1120 q 381 1142 404 1120 q 359 1199 359 1165 q 382 1254 359 1230 q 437 1278 405 1278 m 702 1278 q 757 1254 734 1278 q 781 1199 781 1230 q 758 1142 781 1165 q 702 1120 735 1120 q 645 1142 668 1120 q 623 1199 623 1165 q 646 1254 623 1230 q 702 1278 669 1278 "},"z":{"x_min":55.296875,"x_max":681,"ha":732,"o":"m 55 0 l 55 58 l 507 649 l 150 649 l 150 524 l 78 524 l 78 722 l 668 722 l 668 663 l 216 72 l 608 72 l 608 202 l 681 202 l 681 0 l 55 0 "},"â±¶":{"x_min":47,"x_max":698,"ha":771,"o":"m 615 434 l 615 560 l 698 560 l 698 223 l 615 223 l 615 350 l 284 350 l 284 72 l 397 72 l 397 0 l 47 0 l 47 72 l 159 72 l 159 649 l 47 649 l 47 721 l 397 721 l 397 649 l 284 649 l 284 434 l 615 434 "},"Ã£":{"x_min":69,"x_max":789,"ha":828,"o":"m 552 226 l 552 379 l 391 379 q 253 339 298 379 q 208 216 208 299 q 254 97 208 141 q 378 53 300 53 q 504 101 456 53 q 552 226 552 149 m 677 450 l 677 72 l 789 72 l 789 0 l 553 0 l 553 78 q 456 3 511 27 q 330 -20 402 -20 q 139 43 210 -20 q 69 216 69 107 q 149 390 69 328 q 377 452 230 452 l 553 452 l 553 501 q 503 628 553 583 q 362 673 453 673 q 243 639 288 673 q 188 539 199 605 l 124 539 l 124 685 q 250 727 189 713 q 370 741 312 741 q 598 666 520 741 q 677 450 677 592 m 382 929 l 344 966 q 315 987 326 982 q 290 993 303 993 q 244 966 261 993 q 228 888 228 939 l 162 888 q 196 1029 162 979 q 293 1079 231 1079 q 341 1069 319 1079 q 388 1037 363 1060 l 426 1000 q 454 979 442 984 q 480 974 465 974 q 526 1001 509 974 q 543 1079 543 1028 l 609 1079 q 574 938 609 988 q 477 888 539 888 q 429 897 451 888 q 382 929 408 907 "},"â§«":{"x_min":4.0625,"x_max":682.234375,"ha":686,"o":"m 343 1121 l 682 401 l 343 -323 l 4 401 l 343 1121 "},"Ã¦":{"x_min":69,"x_max":1234,"ha":1305,"o":"m 552 226 l 552 379 l 391 379 q 253 339 298 379 q 208 216 208 299 q 254 97 208 141 q 378 53 300 53 q 504 101 456 53 q 552 226 552 149 m 626 101 q 501 9 569 39 q 348 -20 432 -20 q 141 41 214 -20 q 69 216 69 103 q 150 390 69 328 q 377 452 231 452 l 552 452 l 552 501 q 503 628 552 582 q 367 673 454 673 q 244 640 289 673 q 188 539 199 606 l 124 539 l 124 685 q 250 727 189 713 q 370 741 312 741 q 531 711 466 741 q 634 620 596 681 q 749 710 684 680 q 894 741 815 741 q 1146 639 1058 741 q 1234 347 1234 538 l 698 347 l 698 341 q 752 121 698 195 q 915 47 807 47 q 1049 90 997 47 q 1123 218 1102 133 l 1223 218 q 1113 39 1193 99 q 902 -20 1032 -20 q 749 10 819 -20 q 626 101 679 41 m 1087 419 q 1036 609 1087 545 q 892 673 986 673 q 753 609 804 673 q 703 419 703 544 l 1087 419 "},"Â®":{"x_min":192,"x_max":1197,"ha":1389,"o":"m 607 537 l 691 537 q 775 562 747 537 q 804 639 804 588 q 775 715 804 689 q 691 741 747 741 l 607 741 l 607 537 m 773 511 q 821 485 801 502 q 855 440 841 467 l 934 285 l 986 285 l 986 239 l 856 239 l 768 411 q 723 475 744 459 q 669 491 702 491 l 607 491 l 607 285 l 664 285 l 664 239 l 449 239 l 449 285 l 505 285 l 505 741 l 449 741 l 449 786 l 730 786 q 860 748 816 786 q 905 636 905 710 q 872 549 905 580 q 773 511 839 518 m 694 938 q 528 906 605 938 q 388 810 452 874 q 293 669 325 747 q 261 502 261 591 q 293 337 261 414 q 388 197 325 261 q 528 101 452 133 q 694 69 605 69 q 861 101 784 69 q 1001 197 938 133 q 1096 337 1064 260 q 1128 502 1128 413 q 1096 670 1128 593 q 1001 810 1064 747 q 861 906 938 874 q 694 938 784 938 m 694 1008 q 886 970 797 1008 q 1049 859 975 933 q 1160 696 1123 785 q 1197 502 1197 607 q 1160 311 1197 399 q 1049 148 1123 222 q 886 37 975 74 q 694 0 797 0 q 502 37 591 0 q 339 148 413 74 q 228 311 265 222 q 192 502 192 399 q 228 696 192 607 q 339 859 265 785 q 502 970 413 933 q 694 1008 591 1008 "},"Ã‰":{"x_min":76.40625,"x_max":902,"ha":1013,"o":"m 76 0 l 76 72 l 205 72 l 205 940 l 76 940 l 76 1013 l 891 1013 l 891 787 l 808 787 l 808 929 l 343 929 l 343 590 l 675 590 l 675 717 l 758 717 l 758 380 l 675 380 l 675 507 l 343 507 l 343 83 l 819 83 l 819 225 l 902 225 l 902 0 l 76 0 m 550 1289 l 683 1289 l 505 1109 l 426 1109 l 550 1289 "},"~":{"x_min":147,"x_max":1016,"ha":1163,"o":"m 1016 546 l 1016 446 q 887 358 948 386 q 763 330 826 330 q 580 374 698 330 l 573 377 q 551 386 565 380 q 386 425 451 425 q 265 400 324 425 q 147 323 207 375 l 147 426 q 275 512 214 485 q 399 540 336 540 q 582 495 464 540 l 589 492 q 610 484 597 489 q 774 445 708 445 q 896 470 837 445 q 1016 546 956 495 "},"Â³":{"x_min":68,"x_max":487,"ha":558,"o":"m 84 995 q 179 1022 134 1013 q 265 1031 225 1031 q 409 994 358 1031 q 460 890 460 957 q 424 807 460 841 q 323 762 388 773 q 445 711 404 751 q 487 603 487 670 q 427 484 487 525 q 257 443 368 443 q 161 452 208 443 q 68 480 114 461 l 68 596 l 117 596 q 150 519 117 545 q 246 493 184 493 q 346 522 311 493 q 381 608 381 552 q 346 703 381 671 q 242 736 311 736 l 207 736 l 207 786 l 225 786 q 324 811 290 786 q 358 886 358 836 q 330 956 358 932 q 251 981 303 981 q 166 959 196 981 q 132 894 137 937 l 84 894 l 84 995 "},"Â¡":{"x_min":189,"x_max":369,"ha":558,"o":"m 189 942 q 214 1006 189 980 q 279 1033 240 1033 q 342 1006 316 1033 q 369 942 369 980 q 342 878 369 904 q 279 852 316 852 q 214 878 240 852 q 189 942 189 904 m 214 0 l 214 557 l 214 728 l 344 728 l 344 557 l 344 0 l 214 0 "},"[":{"x_min":119,"x_max":434.8125,"ha":542,"o":"m 119 1056 l 434 1056 l 434 984 l 249 984 l 249 -111 l 434 -111 l 434 -183 l 119 -183 l 119 1056 "},"â±§":{"x_min":77,"x_max":1135,"ha":1212,"o":"m 77 0 l 77 72 l 206 72 l 206 940 l 77 940 l 77 1013 l 472 1013 l 472 940 l 344 940 l 344 590 l 868 590 l 868 940 l 740 940 l 740 1013 l 1135 1013 l 1135 940 l 1006 940 l 1006 72 l 1135 72 l 1135 -218 l 1063 -218 q 1050 -107 1063 -215 q 970 0 1038 0 l 740 0 l 740 72 l 868 72 l 868 507 l 344 507 l 344 72 l 472 72 l 472 0 l 77 0 "},"L":{"x_min":76.96875,"x_max":889,"ha":922,"o":"m 76 0 l 76 72 l 206 72 l 206 940 l 77 940 l 77 1013 l 472 1013 l 472 940 l 344 940 l 344 83 l 806 83 l 806 253 l 889 253 l 889 0 l 76 0 "}," ":{"x_min":0,"x_max":0,"ha":441},"%":{"x_min":77,"x_max":1244,"ha":1321,"o":"m 311 968 q 218 911 251 968 q 185 754 185 855 q 219 597 185 654 q 311 540 253 540 q 402 596 369 540 q 436 754 436 653 q 402 911 436 854 q 311 968 369 968 m 1010 471 q 917 413 951 471 q 884 255 884 356 q 917 98 884 155 q 1010 42 951 42 q 1101 98 1068 42 q 1135 255 1135 155 q 1101 413 1135 356 q 1010 471 1067 471 m 1010 532 q 1180 457 1117 532 q 1244 255 1244 382 q 1180 54 1244 128 q 1010 -20 1116 -20 q 838 54 901 -20 q 775 255 775 128 q 838 457 775 383 q 1010 532 902 532 m 925 1031 l 1028 1031 l 394 -20 l 291 -20 l 925 1031 m 310 1031 q 481 956 417 1031 q 545 755 545 882 q 481 553 545 627 q 310 479 418 479 q 139 553 202 479 q 77 755 77 627 q 140 956 77 881 q 310 1031 203 1031 "},"P":{"x_min":77,"x_max":885,"ha":935,"o":"m 344 516 l 522 516 q 676 570 623 516 q 729 728 729 625 q 676 885 729 831 q 522 940 623 940 l 344 940 l 344 516 m 77 0 l 77 72 l 206 72 l 206 940 l 77 940 l 77 1013 l 555 1013 q 796 935 707 1013 q 885 728 885 858 q 796 520 885 597 q 555 443 707 443 l 344 443 l 344 72 l 500 72 l 500 0 l 77 0 "},"Ã€":{"x_min":-8,"x_max":1017,"ha":1004,"o":"m 278 367 l 650 367 l 464 848 l 278 367 m -8 0 l -8 72 l 80 72 l 441 1013 l 556 1013 l 917 72 l 1017 72 l 1017 0 l 649 0 l 649 72 l 761 72 l 676 294 l 250 294 l 165 72 l 277 72 l 277 0 l -8 0 m 454 1288 l 578 1109 l 498 1109 l 321 1288 l 454 1288 "},"_":{"x_min":0,"x_max":694,"ha":694,"o":"m 694 -274 l 694 -328 l 0 -328 l 0 -274 l 694 -274 "},"Ã±":{"x_min":50.640625,"x_max":857,"ha":896,"o":"m 58 0 l 58 72 l 170 72 l 170 649 l 50 649 l 50 722 l 295 722 l 295 593 q 384 703 329 666 q 513 741 440 741 q 688 672 632 741 q 745 458 745 604 l 745 72 l 857 72 l 857 0 l 512 0 l 512 72 l 620 72 l 620 419 q 587 600 620 551 q 472 650 554 650 q 340 586 385 650 q 295 401 295 523 l 295 72 l 404 72 l 404 0 l 58 0 m 445 929 l 406 966 q 377 988 389 983 q 353 994 366 994 q 307 966 324 994 q 291 888 291 939 l 225 888 q 259 1029 225 979 q 356 1080 294 1080 q 403 1070 381 1080 q 450 1038 425 1061 l 489 1001 q 516 979 504 985 q 542 974 527 974 q 588 1001 571 974 q 605 1080 605 1029 l 671 1080 q 636 938 671 988 q 539 888 601 888 q 492 897 513 888 q 445 929 470 907 "},"+":{"x_min":147,"x_max":1016,"ha":1163,"o":"m 636 871 l 636 491 l 1016 491 l 1016 381 l 636 381 l 636 0 l 527 0 l 527 381 l 147 381 l 147 491 l 527 491 l 527 871 l 636 871 "},"Â½":{"x_min":99.6875,"x_max":1259,"ha":1347,"o":"m 120 453 l 120 510 l 236 510 l 236 940 l 99 868 l 99 932 l 262 1019 l 332 1019 l 332 510 l 450 510 l 450 453 l 120 453 m 941 1031 l 1043 1031 l 404 -20 l 302 -20 l 941 1031 m 904 426 l 857 426 l 857 533 q 949 566 901 555 q 1043 578 996 578 q 1195 533 1137 578 q 1253 417 1253 488 q 1121 217 1253 335 l 1108 205 l 947 60 l 1209 60 l 1209 133 l 1259 133 l 1259 0 l 850 0 l 850 51 l 1043 223 q 1126 316 1101 275 q 1152 403 1152 358 q 1119 494 1152 460 q 1029 528 1086 528 q 944 502 976 528 q 904 426 912 476 "},"Ã†":{"x_min":-24,"x_max":1318,"ha":1390,"o":"m 288 367 l 620 367 l 620 940 l 552 940 l 288 367 m 491 0 l 491 72 l 620 72 l 620 294 l 255 294 l 152 72 l 264 72 l 264 0 l -24 0 l -24 72 l 64 72 l 465 940 l 319 940 l 319 1013 l 1306 1013 l 1306 787 l 1223 787 l 1223 929 l 756 929 l 756 590 l 1090 590 l 1090 717 l 1173 717 l 1173 380 l 1090 380 l 1090 507 l 756 507 l 756 83 l 1235 83 l 1235 225 l 1318 225 l 1318 0 l 491 0 "},"Ã‹":{"x_min":76.40625,"x_max":902,"ha":1013,"o":"m 76 0 l 76 72 l 205 72 l 205 940 l 76 940 l 76 1013 l 891 1013 l 891 787 l 808 787 l 808 929 l 343 929 l 343 590 l 675 590 l 675 717 l 758 717 l 758 380 l 675 380 l 675 507 l 343 507 l 343 83 l 819 83 l 819 225 l 902 225 l 902 0 l 76 0 m 374 1278 q 430 1254 407 1278 q 454 1199 454 1230 q 431 1142 454 1165 q 374 1120 408 1120 q 318 1142 341 1120 q 296 1199 296 1165 q 319 1254 296 1230 q 374 1278 342 1278 m 639 1278 q 694 1254 671 1278 q 718 1199 718 1230 q 695 1142 718 1165 q 639 1120 672 1120 q 582 1142 605 1120 q 560 1199 560 1165 q 583 1254 560 1230 q 639 1278 606 1278 "},"'":{"x_min":136,"x_max":244,"ha":382,"o":"m 244 1014 l 244 637 l 136 637 l 136 1014 l 244 1014 "},"Âª":{"x_min":85,"x_max":623,"ha":660,"o":"m 568 827 l 568 570 l 623 570 l 623 513 l 468 513 l 468 567 q 393 516 435 532 q 291 500 350 500 q 140 544 196 500 q 85 664 85 588 q 149 785 85 741 q 328 829 213 829 l 468 829 l 468 859 q 428 948 468 916 q 318 980 389 980 q 224 956 259 980 q 180 886 189 932 l 128 886 l 128 992 q 229 1022 181 1012 q 323 1032 278 1032 q 505 979 443 1032 q 568 827 568 927 m 468 676 l 468 777 l 340 777 q 232 749 269 777 q 196 669 196 722 q 230 585 196 614 q 330 557 264 557 q 430 589 392 557 q 468 676 468 622 m 113 434 l 586 434 l 586 363 l 113 363 l 113 434 "},"Ã°":{"x_min":69,"x_max":766,"ha":836,"o":"m 556 629 q 498 638 525 635 q 443 642 471 642 q 270 569 326 642 q 214 344 214 496 q 268 124 214 202 q 417 47 321 47 q 567 124 515 47 q 620 347 620 202 q 604 494 620 423 q 556 629 588 566 m 515 886 q 702 640 639 773 q 766 360 766 507 q 670 84 766 188 q 417 -20 575 -20 q 165 82 262 -20 q 69 350 69 185 q 164 607 69 509 q 414 706 260 706 q 463 706 438 706 q 524 698 489 706 q 484 770 509 734 q 426 844 460 807 l 208 743 l 182 796 l 381 887 q 287 954 340 927 q 169 997 233 982 l 181 1055 q 333 1005 262 1037 q 466 927 403 974 l 684 1029 l 709 976 l 515 886 "},"T":{"x_min":14,"x_max":913,"ha":927,"o":"m 266 0 l 266 72 l 395 72 l 395 932 l 97 932 l 97 773 l 14 773 l 14 1013 l 913 1013 l 913 773 l 830 773 l 830 932 l 532 932 l 532 72 l 662 72 l 662 0 l 266 0 "},"Ãž":{"x_min":77,"x_max":885,"ha":939,"o":"m 344 294 l 522 294 q 676 348 623 294 q 729 507 729 403 q 676 665 729 610 q 522 720 623 720 l 344 720 l 344 294 m 77 0 l 77 72 l 206 72 l 206 940 l 77 940 l 77 1013 l 500 1013 l 500 940 l 344 940 l 344 792 l 555 792 q 796 714 707 792 q 885 507 885 637 q 795 298 885 375 q 555 221 706 221 l 344 221 l 344 72 l 500 72 l 500 0 l 77 0 "},"j":{"x_min":-134,"x_max":294,"ha":430,"o":"m 139 944 q 161 998 139 975 q 216 1022 184 1022 q 270 998 247 1022 q 293 944 293 975 q 270 890 293 912 q 216 868 248 868 q 161 890 184 868 q 139 944 139 912 m 169 648 l 51 648 l 51 721 l 294 721 l 294 -70 q 227 -245 294 -182 q 45 -309 161 -309 q -47 -297 -3 -309 q -134 -264 -91 -286 l -134 -116 l -68 -116 q -38 -211 -68 -180 q 46 -241 -9 -241 q 139 -200 109 -241 q 169 -70 169 -158 l 169 648 "},"â±·":{"x_min":61,"x_max":911,"ha":972,"o":"m 423 0 q 248 19 288 0 q 152 89 201 41 q 77 205 108 132 q 61 346 61 246 q 105 589 61 501 q 261 721 146 667 l 337 721 l 337 681 q 225 580 270 649 q 200 357 200 542 q 237 155 200 230 q 424 71 272 84 l 424 357 q 454 590 424 509 q 661 724 505 724 q 866 589 795 724 q 911 346 911 503 q 894 205 911 246 q 819 89 863 132 q 723 19 767 38 q 548 0 682 0 l 423 0 m 549 72 q 734 155 701 87 q 772 357 772 228 q 746 580 772 507 q 661 657 720 657 q 573 580 610 657 q 549 357 549 529 q 549 72 549 165 "},"1":{"x_min":169.875,"x_max":687,"ha":884,"o":"m 198 0 l 198 72 l 374 72 l 374 914 l 169 782 l 169 871 l 416 1031 l 510 1031 l 510 72 l 687 72 l 687 0 l 198 0 "},"Ã¤":{"x_min":69,"x_max":789,"ha":828,"o":"m 552 226 l 552 379 l 391 379 q 253 339 298 379 q 208 216 208 299 q 254 97 208 141 q 378 53 300 53 q 504 101 456 53 q 552 226 552 149 m 677 450 l 677 72 l 789 72 l 789 0 l 553 0 l 553 78 q 456 3 510 27 q 329 -20 402 -20 q 139 43 210 -20 q 69 216 69 107 q 149 390 69 328 q 377 452 230 452 l 553 452 l 553 501 q 503 628 553 583 q 362 673 453 673 q 244 639 288 673 q 189 539 199 605 l 124 539 l 124 685 q 250 727 189 713 q 370 741 312 741 q 598 666 520 741 q 677 450 677 592 m 253 1064 q 309 1040 286 1064 q 333 984 333 1017 q 310 927 333 949 q 253 905 288 905 q 197 927 219 905 q 175 984 175 949 q 198 1040 175 1017 q 253 1064 221 1064 m 518 1064 q 573 1040 550 1064 q 597 984 597 1017 q 574 927 597 949 q 518 905 552 905 q 461 927 483 905 q 439 984 439 949 q 462 1040 439 1017 q 518 1064 485 1064 "},"<":{"x_min":147,"x_max":1016,"ha":1163,"o":"m 1016 692 l 312 434 l 1016 179 l 1016 63 l 147 379 l 147 491 l 1016 807 l 1016 692 "},"Â£":{"x_min":93,"x_max":763,"ha":884,"o":"m 747 831 l 676 831 q 631 929 669 895 q 528 964 593 964 q 400 911 441 964 q 360 747 360 858 l 360 548 l 639 548 l 639 475 l 360 475 l 360 82 l 684 82 l 684 236 l 763 236 l 763 0 l 93 0 l 93 72 l 224 72 l 224 475 l 93 475 l 93 548 l 224 548 l 224 747 q 301 958 224 886 q 529 1031 379 1031 q 642 1022 587 1031 q 747 997 697 1014 l 747 831 "},"Â¹":{"x_min":99.6875,"x_max":450,"ha":558,"o":"m 120 453 l 120 510 l 236 510 l 236 940 l 99 868 l 99 932 l 262 1019 l 332 1019 l 332 510 l 450 510 l 450 453 l 120 453 "},"t":{"x_min":40,"x_max":544,"ha":558,"o":"m 150 648 l 40 648 l 40 721 l 150 721 l 150 944 l 275 944 l 275 721 l 510 721 l 510 648 l 275 648 l 275 190 q 292 72 275 98 q 358 47 310 47 q 429 75 407 47 q 452 169 452 104 l 544 169 q 495 25 544 70 q 348 -20 447 -20 q 194 27 239 -20 q 150 190 150 75 l 150 648 "},"Â¬":{"x_min":147.09375,"x_max":1017,"ha":1164,"o":"m 147 585 l 1017 585 l 1017 194 l 908 194 l 908 475 l 147 475 l 147 585 "},"Ã¹":{"x_min":37.421875,"x_max":843,"ha":895,"o":"m 491 721 l 725 721 l 725 72 l 843 72 l 843 0 l 600 0 l 600 127 q 510 17 565 55 q 383 -20 455 -20 q 206 48 263 -20 q 150 262 150 116 l 150 648 l 37 648 l 37 721 l 275 721 l 275 301 q 307 120 275 169 q 422 72 339 72 q 554 135 509 72 q 600 320 600 199 l 600 648 l 491 648 l 491 721 m 297 1110 l 474 855 l 394 855 l 164 1110 l 297 1110 "},"W":{"x_min":7,"x_max":1424,"ha":1428,"o":"m 1058 1 l 947 1 l 715 824 l 484 1 l 372 1 l 107 941 l 7 941 l 7 1014 l 377 1014 l 377 941 l 250 941 l 461 192 l 692 1014 l 801 1014 l 1036 184 l 1248 941 l 1132 941 l 1132 1014 l 1424 1014 l 1424 941 l 1324 941 l 1058 1 "},"Ã¯":{"x_min":12,"x_max":434,"ha":445,"o":"m 295 72 l 413 72 l 413 0 l 51 0 l 51 72 l 170 72 l 170 649 l 51 649 l 51 722 l 295 722 l 295 72 m 90 1065 q 146 1041 123 1065 q 170 985 170 1018 q 147 928 170 950 q 90 906 125 906 q 34 928 56 906 q 12 985 12 950 q 35 1041 12 1018 q 90 1065 58 1065 m 355 1065 q 410 1041 387 1065 q 434 985 434 1018 q 411 928 434 950 q 355 906 389 906 q 298 928 320 906 q 276 985 276 950 q 299 1041 276 1018 q 355 1065 322 1065 "},">":{"x_min":147,"x_max":1016,"ha":1163,"o":"m 147 692 l 147 807 l 1016 491 l 1016 379 l 147 63 l 147 179 l 850 434 l 147 692 "},"v":{"x_min":-4,"x_max":781,"ha":785,"o":"m 343 0 l 78 649 l -4 649 l -4 722 l 328 722 l 328 649 l 212 649 l 415 152 l 618 649 l 510 649 l 510 722 l 781 722 l 781 649 l 700 649 l 434 0 l 343 0 "},"Ã»":{"x_min":37.421875,"x_max":843,"ha":895,"o":"m 491 721 l 725 721 l 725 72 l 843 72 l 843 0 l 600 0 l 600 127 q 510 17 565 55 q 383 -20 455 -20 q 206 48 263 -20 q 150 262 150 116 l 150 648 l 37 648 l 37 721 l 275 721 l 275 301 q 307 120 275 169 q 422 72 339 72 q 554 135 509 72 q 600 320 600 199 l 600 648 l 491 648 l 491 721 m 338 1111 l 452 1111 l 612 856 l 533 856 l 395 1032 l 258 856 l 179 856 l 338 1111 "},"Ã’":{"x_min":78,"x_max":1061,"ha":1138,"o":"m 569 53 q 820 167 735 53 q 905 505 905 281 q 820 843 905 729 q 569 958 735 958 q 317 843 402 958 q 233 505 233 729 q 317 167 233 281 q 569 53 402 53 m 569 -20 q 380 13 466 -20 q 227 113 293 47 q 114 286 151 189 q 78 505 78 382 q 114 724 78 627 q 227 897 151 821 q 379 997 294 963 q 569 1031 465 1031 q 925 886 789 1031 q 1061 505 1061 741 q 1023 286 1061 383 q 910 113 986 188 q 758 13 844 47 q 569 -20 673 -20 m 521 1288 l 645 1109 l 566 1109 l 388 1288 l 521 1288 "},"&":{"x_min":100,"x_max":1171,"ha":1237,"o":"m 750 156 l 355 572 q 267 457 296 519 q 238 327 238 396 q 315 138 238 214 q 510 62 393 62 q 640 86 579 62 q 750 156 702 110 m 1171 0 l 899 0 l 806 98 q 653 9 734 38 q 479 -20 573 -20 q 202 69 304 -20 q 100 312 100 159 q 152 480 100 402 q 308 627 204 559 q 257 710 273 669 q 241 796 241 751 q 318 967 241 904 q 530 1031 396 1031 q 636 1019 575 1031 q 775 984 697 1007 l 775 810 l 698 810 q 645 920 689 882 q 527 958 602 958 q 414 919 457 958 q 371 820 371 881 q 394 737 371 778 q 490 620 417 696 l 840 251 q 914 368 887 305 q 948 502 941 430 l 826 502 l 826 575 l 1147 575 l 1147 502 l 1030 502 q 985 337 1018 413 q 895 195 951 260 l 1011 72 l 1171 72 l 1171 0 "},"Ã�":{"x_min":77,"x_max":1041,"ha":1122,"o":"m 349 72 l 476 72 q 780 184 674 72 q 886 507 886 297 q 780 828 886 717 q 476 940 674 940 l 349 940 l 349 573 l 577 573 l 577 488 l 349 488 l 349 72 m 84 0 l 84 72 l 213 72 l 213 488 l 77 488 l 77 573 l 213 573 l 213 940 l 84 940 l 84 1013 l 486 1013 q 894 879 748 1013 q 1041 507 1041 745 q 894 134 1041 268 q 486 0 748 0 l 84 0 "},"I":{"x_min":77,"x_max":472,"ha":549,"o":"m 344 72 l 472 72 l 472 0 l 77 0 l 77 72 l 206 72 l 206 940 l 77 940 l 77 1013 l 472 1013 l 472 940 l 344 940 l 344 72 "},"G":{"x_min":78,"x_max":1000,"ha":1109,"o":"m 888 710 q 789 897 864 836 q 580 958 714 958 q 319 845 405 958 q 233 505 233 732 q 321 167 233 282 q 582 53 410 53 q 729 71 659 53 q 862 128 798 90 l 862 390 l 671 390 l 671 463 l 1000 463 l 1000 84 q 805 6 909 32 q 583 -20 701 -20 q 215 123 353 -20 q 78 505 78 267 q 216 888 78 745 q 588 1031 354 1031 q 767 1010 675 1031 q 964 949 860 990 l 964 710 l 888 710 "},"`":{"x_min":115.28125,"x_max":425.21875,"ha":694,"o":"m 248 1110 l 425 855 l 345 855 l 115 1110 l 248 1110 "},"Â·":{"x_min":129,"x_max":310,"ha":442,"o":"m 129 482 q 155 546 129 520 q 219 573 181 573 q 283 546 257 573 q 310 482 310 519 q 283 418 310 444 q 219 392 257 392 q 155 417 181 392 q 129 482 129 443 "},"r":{"x_min":50.640625,"x_max":665,"ha":665,"o":"m 665 722 l 665 542 l 591 542 q 564 622 591 595 q 486 649 537 649 q 344 585 393 649 q 295 401 295 521 l 295 72 l 440 72 l 440 0 l 58 0 l 58 72 l 170 72 l 170 650 l 50 650 l 50 721 l 295 721 l 295 593 q 389 704 331 668 q 529 741 447 741 q 594 736 560 741 q 665 722 627 731 "},"Â¿":{"x_min":94,"x_max":677.125,"ha":744,"o":"m 527 942 q 500 878 527 904 q 437 852 474 852 q 373 878 399 852 q 347 942 347 904 q 373 1006 347 980 q 437 1033 399 1033 q 501 1006 475 1033 q 527 942 527 980 m 677 45 q 540 -2 605 13 q 418 -18 476 -18 q 181 54 268 -18 q 94 250 94 127 q 169 457 94 377 q 396 571 244 537 l 396 744 l 479 744 l 479 521 q 298 423 359 492 q 237 249 237 355 q 286 102 237 156 q 422 49 336 49 q 548 93 498 49 q 611 222 597 138 l 677 222 l 677 45 "},"Ã½":{"x_min":-4,"x_max":781,"ha":785,"o":"m 300 -132 l 347 -12 l 78 648 l -4 648 l -4 721 l 328 721 l 328 648 l 212 648 l 415 152 l 618 648 l 510 648 l 510 721 l 781 721 l 781 648 l 700 648 l 369 -162 q 294 -277 336 -246 q 178 -309 253 -309 q 112 -303 146 -309 q 45 -287 78 -298 l 45 -150 l 108 -150 q 132 -216 112 -196 q 192 -236 151 -236 q 252 -215 229 -236 q 300 -132 275 -194 m 487 1111 l 622 1111 l 392 856 l 313 856 l 487 1111 "},"x":{"x_min":17,"x_max":766,"ha":783,"o":"m 403 440 l 555 649 l 459 649 l 459 722 l 736 722 l 736 649 l 640 649 l 447 382 l 672 72 l 766 72 l 766 0 l 433 0 l 433 72 l 525 72 l 368 287 l 211 72 l 305 72 l 305 0 l 31 0 l 31 72 l 126 72 l 325 346 l 106 649 l 17 649 l 17 722 l 339 722 l 339 649 l 253 649 l 403 440 "},"Ã¨":{"x_min":69,"x_max":750,"ha":821,"o":"m 750 347 l 214 347 l 214 341 q 269 121 214 195 q 431 47 324 47 q 566 90 513 47 q 639 218 618 133 l 739 218 q 629 39 710 99 q 418 -20 549 -20 q 164 84 260 -20 q 69 360 69 188 q 163 636 69 531 q 411 741 257 741 q 662 640 574 741 q 750 347 750 539 m 603 419 q 553 609 603 545 q 411 673 504 673 q 275 609 325 673 q 214 419 225 544 l 603 419 m 312 1109 l 488 855 l 409 855 l 178 1109 l 312 1109 "},"Âº":{"x_min":64,"x_max":589,"ha":653,"o":"m 326 552 q 434 605 398 552 q 471 765 471 659 q 434 925 471 871 q 326 980 397 980 q 218 925 255 980 q 182 765 182 870 q 218 606 182 660 q 326 552 255 552 m 326 500 q 135 573 207 500 q 64 765 64 646 q 135 958 64 885 q 326 1032 207 1032 q 517 958 445 1032 q 589 765 589 885 q 517 572 589 645 q 326 500 445 500 m 93 434 l 560 434 l 560 363 l 93 363 l 93 434 "},"Ã˜":{"x_min":67.828125,"x_max":1067.78125,"ha":1138,"o":"m 822 840 q 716 928 778 899 q 569 958 653 958 q 317 843 402 958 q 233 505 233 729 q 243 359 233 424 q 277 238 254 293 l 822 840 m 313 173 q 420 83 357 113 q 569 53 484 53 q 820 167 735 53 q 905 505 905 281 q 893 651 905 584 q 859 773 882 718 l 313 173 m 942 865 q 1031 702 1001 791 q 1061 504 1061 613 q 925 125 1061 270 q 569 -20 789 -20 q 393 9 473 -20 q 243 97 312 38 l 120 -39 l 67 7 l 194 148 q 106 308 135 219 q 78 505 78 396 q 214 885 78 740 q 569 1031 350 1031 q 746 1002 665 1031 q 892 916 827 973 l 1013 1051 l 1067 1003 l 942 865 "},"Ã·":{"x_min":147,"x_max":1016,"ha":1163,"o":"m 492 686 q 518 750 492 724 q 582 777 544 777 q 645 750 619 777 q 672 686 672 723 q 645 622 672 648 q 582 596 619 596 q 517 621 543 596 q 492 686 492 647 m 492 184 q 518 248 492 222 q 582 275 544 275 q 645 248 619 275 q 672 184 672 222 q 645 120 672 146 q 582 94 619 94 q 517 120 543 94 q 492 184 492 146 m 147 490 l 1016 490 l 1016 380 l 147 380 l 147 490 "},"h":{"x_min":50.640625,"x_max":857,"ha":896,"o":"m 58 0 l 58 72 l 170 72 l 170 984 l 50 984 l 50 1056 l 295 1056 l 295 593 q 384 703 329 666 q 513 741 440 741 q 688 672 632 741 q 745 458 745 604 l 745 72 l 857 72 l 857 0 l 512 0 l 512 72 l 620 72 l 620 419 q 587 600 620 551 q 472 649 555 649 q 340 585 385 649 q 295 401 295 522 l 295 72 l 404 72 l 404 0 l 58 0 "},".":{"x_min":131,"x_max":311,"ha":441,"o":"m 131 70 q 156 134 131 108 q 221 161 182 161 q 284 134 258 161 q 311 70 311 108 q 284 6 311 32 q 221 -20 258 -20 q 156 6 182 -20 q 131 70 131 32 "},";":{"x_min":50.03125,"x_max":327,"ha":467,"o":"m 50 -135 q 143 -24 113 -88 q 173 128 173 38 l 173 154 l 304 154 q 254 -45 304 37 q 104 -189 204 -128 l 50 -135 m 147 513 q 173 577 147 551 q 237 604 199 604 q 300 577 274 604 q 327 513 327 550 q 300 449 327 475 q 237 423 274 423 q 173 449 199 423 q 147 513 147 475 "},"f":{"x_min":50,"x_max":597,"ha":514,"o":"m 597 886 l 531 886 q 502 962 531 936 q 420 989 474 989 q 322 950 351 989 q 294 814 294 912 l 294 722 l 496 722 l 496 649 l 294 649 l 294 72 l 454 72 l 454 0 l 50 0 l 50 72 l 169 72 l 169 649 l 50 649 l 50 722 l 169 722 l 169 812 q 231 994 169 932 q 415 1056 294 1056 q 506 1047 461 1056 q 597 1022 552 1039 l 597 886 "},"A":{"x_min":-8,"x_max":1017,"ha":1004,"o":"m 278 367 l 650 367 l 464 848 l 278 367 m -8 0 l -8 72 l 80 72 l 441 1013 l 556 1013 l 917 72 l 1017 72 l 1017 0 l 649 0 l 649 72 l 761 72 l 676 294 l 250 294 l 165 72 l 277 72 l 277 0 l -8 0 "},"6":{"x_min":93,"x_max":796,"ha":883,"o":"m 454 47 q 601 117 549 47 q 653 319 653 187 q 601 520 653 450 q 454 591 549 591 q 306 523 357 591 q 255 327 255 455 q 307 119 255 192 q 454 47 358 47 m 234 557 q 337 633 279 607 q 469 658 396 658 q 708 567 620 658 q 796 319 796 476 q 701 72 796 165 q 448 -20 606 -20 q 185 107 277 -20 q 93 473 93 235 q 202 885 93 739 q 509 1031 311 1031 q 622 1020 563 1031 q 743 990 681 1010 l 743 823 l 666 823 q 614 927 658 891 q 495 964 570 964 q 298 864 363 964 q 234 557 234 764 "},"O":{"x_min":78,"x_max":1061,"ha":1138,"o":"m 569 53 q 820 167 735 53 q 905 505 905 281 q 820 843 905 729 q 569 958 735 958 q 317 843 402 958 q 233 505 233 729 q 317 167 233 281 q 569 53 402 53 m 569 -20 q 380 13 466 -20 q 227 113 293 47 q 114 286 151 189 q 78 505 78 382 q 114 724 78 627 q 227 897 151 821 q 379 997 294 963 q 569 1031 465 1031 q 925 886 789 1031 q 1061 505 1061 741 q 1023 286 1061 383 q 910 113 986 188 q 758 13 844 47 q 569 -20 673 -20 "},"n":{"x_min":50.640625,"x_max":857,"ha":896,"o":"m 58 0 l 58 72 l 170 72 l 170 649 l 50 649 l 50 722 l 295 722 l 295 593 q 384 703 329 666 q 513 741 440 741 q 688 672 632 741 q 745 458 745 604 l 745 72 l 857 72 l 857 0 l 512 0 l 512 72 l 620 72 l 620 419 q 587 600 620 551 q 472 650 554 650 q 340 586 385 650 q 295 401 295 523 l 295 72 l 404 72 l 404 0 l 58 0 "},"3":{"x_min":106,"x_max":781,"ha":884,"o":"m 135 970 q 287 1015 214 999 q 424 1031 360 1031 q 656 967 573 1031 q 740 788 740 902 q 682 635 740 697 q 518 552 624 574 q 712 462 643 534 q 781 273 781 389 q 685 55 781 131 q 411 -20 590 -20 q 256 -3 331 -20 q 106 48 180 13 l 106 245 l 185 245 q 244 97 185 147 q 412 47 304 47 q 577 107 516 47 q 638 271 638 167 q 576 452 638 391 q 394 514 514 514 l 330 514 l 330 583 l 364 583 q 542 632 483 583 q 602 780 602 681 q 553 916 602 869 q 412 964 504 964 q 270 920 320 964 q 210 792 219 877 l 135 792 l 135 970 "},"9":{"x_min":87,"x_max":790,"ha":884,"o":"m 648 453 q 544 377 603 402 q 411 352 485 352 q 174 443 261 352 q 87 691 87 534 q 181 938 87 845 q 434 1031 276 1031 q 698 903 606 1031 q 790 537 790 775 q 680 125 790 271 q 373 -20 571 -20 q 260 -9 319 -20 q 140 20 201 0 l 140 189 l 215 189 q 268 83 224 120 q 387 47 312 47 q 583 146 518 47 q 648 453 648 245 m 428 964 q 281 893 332 964 q 230 691 230 823 q 281 489 230 560 q 428 419 332 419 q 576 487 525 419 q 627 683 627 555 q 576 891 627 818 q 428 964 524 964 "},"l":{"x_min":40,"x_max":403,"ha":444,"o":"m 285 72 l 403 72 l 403 0 l 40 0 l 40 72 l 160 72 l 160 984 l 40 984 l 40 1056 l 285 1056 l 285 72 "},"Â¤":{"x_min":70.59375,"x_max":816.765625,"ha":884,"o":"m 611 668 l 753 808 l 816 745 l 675 603 q 718 521 704 562 q 732 435 732 479 q 718 348 732 388 q 673 269 704 308 l 814 129 l 748 65 l 609 204 q 530 160 570 174 q 443 146 490 146 q 357 159 399 146 q 273 201 314 173 l 135 62 l 70 126 l 209 266 q 167 350 181 308 q 154 435 154 391 q 168 522 154 482 q 212 602 182 563 l 71 742 l 136 806 l 276 665 q 355 709 314 695 q 443 724 396 724 q 529 710 488 724 q 611 668 570 696 m 626 436 q 573 564 626 512 q 443 617 520 617 q 314 564 367 617 q 261 436 261 512 q 313 305 261 358 q 443 253 366 253 q 572 306 519 253 q 626 436 626 359 "},"4":{"x_min":43,"x_max":814,"ha":884,"o":"m 485 344 l 485 882 l 139 344 l 485 344 m 783 0 l 322 0 l 322 72 l 485 72 l 485 271 l 43 271 l 43 345 l 486 1031 l 621 1031 l 621 344 l 814 344 l 814 271 l 621 271 l 621 72 l 783 72 l 783 0 "},"p":{"x_min":39.96875,"x_max":819,"ha":889,"o":"m 285 396 l 285 324 q 334 126 285 194 q 479 58 384 58 q 624 134 574 58 q 673 360 673 211 q 624 586 673 510 q 479 663 574 663 q 334 594 384 663 q 285 396 285 525 m 160 649 l 39 649 l 39 722 l 285 722 l 285 608 q 378 708 321 676 q 518 741 434 741 q 734 635 650 741 q 819 360 819 530 q 734 85 819 191 q 518 -20 650 -20 q 378 12 434 -20 q 285 112 321 44 l 285 -216 l 403 -216 l 403 -289 l 40 -289 l 40 -216 l 160 -216 l 160 649 "},"Ã ":{"x_min":69,"x_max":789,"ha":828,"o":"m 552 226 l 552 379 l 391 379 q 253 339 298 379 q 208 216 208 299 q 254 97 208 141 q 378 53 300 53 q 504 101 456 53 q 552 226 552 149 m 677 450 l 677 72 l 789 72 l 789 0 l 553 0 l 553 78 q 456 3 510 27 q 329 -20 402 -20 q 139 43 209 -20 q 69 216 69 107 q 149 390 69 328 q 377 452 230 452 l 553 452 l 553 501 q 503 628 553 583 q 362 673 453 673 q 243 639 288 673 q 188 539 199 605 l 124 539 l 124 685 q 250 727 189 713 q 370 741 312 741 q 598 666 520 741 q 677 450 677 592 m 287 1110 l 463 855 l 384 855 l 153 1110 l 287 1110 "},"Ãœ":{"x_min":65,"x_max":1108,"ha":1170,"o":"m 195 940 l 65 940 l 65 1013 l 461 1013 l 461 940 l 332 940 l 332 416 q 395 145 332 222 q 614 69 458 69 q 832 145 769 69 q 896 416 896 222 l 896 940 l 766 940 l 766 1013 l 1108 1013 l 1108 940 l 979 940 l 979 402 q 890 75 979 171 q 588 -20 801 -20 q 285 76 375 -20 q 195 402 195 172 l 195 940 m 479 1278 q 535 1254 512 1278 q 559 1199 559 1230 q 536 1142 559 1165 q 479 1120 513 1120 q 423 1142 446 1120 q 401 1199 401 1165 q 424 1254 401 1230 q 479 1278 447 1278 m 744 1278 q 799 1254 776 1278 q 823 1199 823 1230 q 800 1142 823 1165 q 744 1120 777 1120 q 687 1142 710 1120 q 665 1199 665 1165 q 688 1254 665 1230 q 744 1278 711 1278 "},"Ã³":{"x_min":69,"x_max":766,"ha":836,"o":"m 417 47 q 569 126 517 47 q 620 360 620 206 q 569 594 620 515 q 417 673 517 673 q 265 594 317 673 q 214 360 214 515 q 266 126 214 206 q 417 47 317 47 m 417 -20 q 164 84 260 -20 q 69 360 69 188 q 164 637 69 533 q 417 741 259 741 q 670 637 575 741 q 766 360 766 533 q 670 84 766 188 q 417 -20 575 -20 m 511 1111 l 646 1111 l 416 856 l 336 856 l 511 1111 "}}}
